<?xml version="1.0" encoding="utf-8"?>
<!-- Svg Vector Icons : http://www.onlinewebfonts.com/icon -->
<!DOCTYPE svg PUBLIC "-//W3C//DTD SVG 1.1//EN" "http://www.w3.org/Graphics/SVG/1.1/DTD/svg11.dtd">
<svg version="1.1" xmlns="http://www.w3.org/2000/svg" xmlns:xlink="http://www.w3.org/1999/xlink" x="0px" y="0px" viewBox="0 0 1000 1000" enable-background="new 0 0 1000 1000" xml:space="preserve">
<g><path d="M31.2,298.8l454.4,247.6c4.6,2.5,9.6,3.7,14.6,3.7c5,0,10-1.2,14.5-3.7l459.1-247.6c10-5.4,16.2-15.9,16.1-27.3c-0.1-11.4-6.6-21.8-16.7-27L518.9,13.7c-8.7-4.4-18.9-4.4-27.6-0.1L32.1,244.6C22,249.7,15.4,260,15.3,271.4C15.1,282.8,21.2,293.4,31.2,298.8z M504.9,75.3l388.4,197.4l-393,212L111.9,273L504.9,75.3z M968,469.7l-90.8-46.1l-65.6,35.4l76.5,38.9l-393,212L106.6,498l81.6-41l-65.4-35.7l-95.9,48.2c-10.1,5.1-16.7,15.5-16.9,26.9c-0.2,11.4,6,22,16,27.4l454.4,247.6c4.6,2.5,9.6,3.7,14.6,3.7c5,0,10-1.2,14.5-3.7l459.2-247.6c10-5.4,16.2-15.9,16.1-27.3C984.6,485.2,978.1,474.8,968,469.7z M968,684L882,641.7l-65.6,35.4l71.7,35.1l-393,212L106.6,712.4l75.9-34.3l-65.4-35.7L26.9,684c-10.1,5.1-16.7,15.5-16.9,26.9c-0.2,11.4,6,22,16,27.4l454.4,247.6c4.6,2.5,9.6,3.7,14.6,3.7c5,0,10-1.2,14.5-3.7l459.2-247.6c10-5.4,16.2-15.9,16.1-27.3C984.6,699.6,978.1,689.2,968,684z" fill="currentColor"/></g>
</svg>
