<?xml version="1.0" encoding="utf-8"?>
<!-- Svg Vector Icons : http://www.onlinewebfonts.com/icon -->
<!DOCTYPE svg PUBLIC "-//W3C//DTD SVG 1.1//EN" "http://www.w3.org/Graphics/SVG/1.1/DTD/svg11.dtd">
<svg version="1.1" xmlns="http://www.w3.org/2000/svg" xmlns:xlink="http://www.w3.org/1999/xlink" x="0px" y="0px" viewBox="0 0 1000 1000" enable-background="new 0 0 1000 1000" xml:space="preserve">
<metadata> Svg Vector Icons : http://www.onlinewebfonts.com/icon </metadata>
<g><g transform="translate(0.000000,511.000000) scale(0.100000,-0.100000)"><path d="M4448.2,4810.9c-176.9-95.1-168-362.6,15.5-470.9c81.8-48.6,121.6-119.4,121.6-221.1c0-187.9-152.5-552.7-406.8-959.5c-179.1-294-320.6-572.6-391.3-778.2c-72.9-214.4-75.2-568.2-6.6-720.7c68.5-145.9,185.7-267.5,327.2-336c229.9-112.7,406.8-101.7,501.8,33.2c53.1,72.9,50.8,172.4-11,437.7c-57.5,241-66.3,517.3-26.5,751.7c30.9,183.5,57.5,254.2,212.2,559.3c229.9,451,311.7,692,327.2,957.3c17.7,333.8-77.4,552.7-313.9,711.9C4678.1,4855.1,4552.1,4868.4,4448.2,4810.9z" fill="currentColor"/><path d="M5889.6,3570.7c-66.3-24.3-154.8-126-168-192.3c-15.5-88.4,22.1-185.7,101.7-258.7c57.5-53.1,61.9-66.3,44.2-143.7c-31-134.9-75.2-229.9-243.2-508.5c-84-141.5-174.7-313.9-201.2-382.5c-117.2-316.1-90.7-566,84-740.6c137.1-139.3,371.4-187.9,493-101.7c84,59.7,121.6,174.6,90.6,271.9c-13.3,37.6-33.2,141.5-46.4,227.7c-35.4,229.9-2.2,393.5,130.4,650c148.1,287.4,201.2,453.2,201.2,634.5c0,192.3-26.6,285.2-112.7,389.1C6154.9,3546.3,6000.2,3610.5,5889.6,3570.7z" fill="currentColor"/><path d="M1700.3,504.4c-92.9-39.8-183.5-152.5-201.2-249.8c-8.8-42-8.8-190.1,0-325c73-1158.4,468.7-2164.3,1156.2-2942.5c97.3-110.5,214.4-227.7,258.6-263.1c46.4-33.2,79.6-66.3,75.2-68.5c-4.4-4.4-229.9-19.9-504-33.2c-1383.9-66.3-1996.3-148.1-2224-294c-141.5-90.7-201.2-302.9-132.6-468.7C241.2-4410.1,765.1-4503,2673-4598c753.9-37.6,3910.8-37.6,4653.6,0c2199.7,110.5,2579.9,203.4,2573.3,630.1c-6.7,404.6-378.1,490.8-2602.1,603.5l-282.9,13.3l218.8,225.5c291.8,300.7,490.8,570.4,709.7,970.5l95,172.5l75.2-68.5c99.5-86.2,221.1-148.1,378-187.9c550.5-143.7,1112,232.1,1200.4,806.9c61.9,415.6-159.2,831.2-541.6,1019.2c-145.9,70.7-170.3,75.1-409,79.6l-252,4.4l8.9,194.5c22.1,417.8,2.2,506.3-139.3,612.4l-61.9,46.4l-3265.3,4.4C2350.2,533.1,1755.5,528.7,1700.3,504.4z M7813-231.8c0-134.8-61.9-484.1-132.6-749.4C7507.9-1633.4,7213.9-2175,6796-2612.8c-420-439.9-857.8-692-1392.8-800.3c-249.8-50.9-709.7-33.2-961.7,35.4C3440.1-3105.8,2622.1-2166.2,2312.6-932.6c-57.5,232.1-79.6,347.1-126,700.8l-11.1,81.8h2818.7H7813V-231.8z M8973.6-777.9c192.3-88.4,318.4-285.2,320.6-497.4c0-183.5-42-287.4-165.8-415.6c-190.1-194.5-437.7-232.1-678.7-101.7c-59.7,33.2-139.3,97.3-174.6,141.5l-66.3,84l77.4,249.8c42,137.1,88.4,311.7,101.7,386.9c24.3,126,33.2,139.3,108.3,170.2C8622.1-707.1,8843.2-716,8973.6-777.9z" fill="currentColor"/></g></g>
</svg>
