<?xml version="1.0" encoding="utf-8"?>
<!-- Svg Vector Icons : http://www.onlinewebfonts.com/icon -->
<!DOCTYPE svg PUBLIC "-//W3C//DTD SVG 1.1//EN" "http://www.w3.org/Graphics/SVG/1.1/DTD/svg11.dtd">
<svg version="1.1" xmlns="http://www.w3.org/2000/svg" xmlns:xlink="http://www.w3.org/1999/xlink" x="0px" y="0px" viewBox="0 0 1000 1000" enable-background="new 0 0 1000 1000" xml:space="preserve">
<g><path d="M987.2,381.3c6.5,12.7,1.4,28.3-11.3,34.8L514.8,651c-12.7,6.5-28.3,1.4-34.8-11.3l0,0c-6.5-12.7-1.4-28.3,11.3-34.8l461-234.9C965.1,363.5,980.7,368.6,987.2,381.3L987.2,381.3z" fill="currentColor"/><path d="M12.8,381.3c-6.5,12.7-1.4,28.3,11.3,34.8L485.1,651c12.7,6.5,28.3,1.4,34.8-11.3l0,0c6.5-12.7,1.4-28.3-11.3-34.8L47.7,370C34.9,363.5,19.3,368.6,12.8,381.3L12.8,381.3z" fill="currentColor"/><path d="M987.2,403.7c6.5-12.7,1.4-28.3-11.3-34.8L514.8,134c-12.7-6.5-28.3-1.4-34.8,11.3l0,0c-6.5,12.7-1.4,28.3,11.3,34.8l461,234.9C965.1,421.5,980.7,416.4,987.2,403.7L987.2,403.7z" fill="currentColor"/><path d="M12.8,403.7c-6.5-12.7-1.4-28.3,11.3-34.8L485.1,134c12.7-6.5,28.3-1.4,34.8,11.3l0,0c6.5,12.7,1.4,28.3-11.3,34.8L47.7,414.9C34.9,421.5,19.3,416.4,12.8,403.7L12.8,403.7z" fill="currentColor"/><path d="M732.8,506.7c-14.2,0-25.9,11.6-25.9,25.9v208.6v27c-8.2,4-17,7.4-25.5,11c-55.8,24-116.9,38-181.4,38c-64.6,0-125.6-14.1-181.4-38c-8.5-3.7-17.2-6.9-25.5-10.9v-27V532.5c0-14.3-11.6-25.9-25.9-25.9s-25.9,11.6-25.9,25.9v206v38.7c0,11.8,5.7,22.2,14.2,29.2c4.6,2.4,9.2,5,13.9,7.3c1.2,0.7,2.5,1.3,3.7,2c68.6,33.6,145.4,53,226.9,53c81.5,0,158.4-19.4,226.9-52.9c1.2-0.6,2.5-1.2,3.7-1.9c4.7-2.3,9.3-4.9,14-7.4c8.5-7.1,14.1-17.4,14.1-29.3v-38.7v-206C758.7,518.3,747,506.7,732.8,506.7z" fill="currentColor"/><path d="M137.8,643.9V444.6c0-14.3-11.6-25.9-25.9-25.9c-14.3,0-25.9,11.5-25.9,25.9V644c-15.2,9-25.9,24.8-25.9,43.8c0,28.7,23.2,51.7,51.7,51.7s51.7-23.1,51.7-51.7C163.7,668.8,153,652.9,137.8,643.9z" fill="currentColor"/></g>
</svg>
