<?xml version="1.0" encoding="UTF-8" standalone="no"?>
<!-- Created with Inkscape (http://www.inkscape.org/) -->

<svg
   width="55mm"
   height="74mm"
   viewBox="0 0 55 74"
   version="1.1"
   id="svg5"
   xml:space="preserve"
   inkscape:version="1.2.2 (732a01da63, 2022-12-09)"
   sodipodi:docname="pin.svg"
   xmlns:inkscape="http://www.inkscape.org/namespaces/inkscape"
   xmlns:sodipodi="http://sodipodi.sourceforge.net/DTD/sodipodi-0.dtd"
   xmlns="http://www.w3.org/2000/svg"
   xmlns:svg="http://www.w3.org/2000/svg"><sodipodi:namedview
     id="namedview7"
     pagecolor="#ffffff"
     bordercolor="#000000"
     borderopacity="0.25"
     inkscape:showpageshadow="2"
     inkscape:pageopacity="0.0"
     inkscape:pagecheckerboard="0"
     inkscape:deskcolor="#d1d1d1"
     inkscape:document-units="mm"
     showgrid="false"
     inkscape:zoom="1"
     inkscape:cx="143"
     inkscape:cy="51"
     inkscape:window-width="1920"
     inkscape:window-height="1017"
     inkscape:window-x="1358"
     inkscape:window-y="-8"
     inkscape:window-maximized="1"
     inkscape:current-layer="layer1" /><defs
     id="defs2" /><g
     inkscape:label="Слой 1"
     inkscape:groupmode="layer"
     id="layer1"><path
       style="opacity:1;fill:#0070ff;fill-opacity:1;fill-rule:nonzero;stroke:#000000;stroke-width:0.11111;stroke-dasharray:none;stroke-opacity:1"
       d=""
       id="path2922"
       transform="scale(0.26458333)" /><g
       id="g5554"
       transform="matrix(0.27841866,0,0,0.2817149,-1.1703513,-1.3755695)"><g
         id="g2158"
         style="opacity:1;mix-blend-mode:normal;fill:#0070ff;fill-opacity:1;fill-rule:nonzero;stroke:#000000;stroke-opacity:1"><path
           d="M 91.976102,8.2476266 C 89.504894,8.5492516 84.866749,9.3324182 81.734083,10.054731 44.742692,18.428792 16.969383,45.601497 8.4127588,81.690659 6.6056549,89.522325 5.8833425,105.1883 6.968134,113.08082 c 1.5663331,10.72356 5.722937,23.49764 10.48279,32.05162 2.770188,4.88156 78.382803,117.12045 80.430678,119.22918 3.010958,3.25437 8.553978,3.49514 11.205098,0.54239 0.60325,-0.66146 18.67694,-27.29177 40.12406,-59.22432 25.30475,-37.59465 40.12406,-60.12656 42.05287,-64.04239 13.01485,-26.26783 12.65238,-56.634058 -1.02394,-82.661117 C 177.88895,35.600248 155.05541,17.70648 128.78758,10.837897 117.58247,7.9460017 103.66539,6.9220643 91.976102,8.2476266 Z M 120.59343,25.538145 c 23.97919,5.180541 44.52408,20.423185 55.24764,40.968078 6.02456,11.445874 8.49577,21.447123 8.49577,34.461977 0.0609,12.83229 -2.16958,22.59277 -7.59089,33.43804 -1.86796,3.79677 -43.68006,66.75436 -68.56147,103.20336 l -4.63815,6.74687 -35.427704,-52.53301 C 48.59767,162.9045 31.608777,137.17907 30.344069,134.70786 21.848299,117.77718 20.281966,96.028428 26.306527,77.954743 30.103298,66.627932 36.36863,56.565829 44.983463,47.950997 57.514128,35.420332 72.637709,27.768583 91.073873,24.694125 c 6.746875,-1.143 22.410207,-0.661459 29.519557,0.84402 z"
           id="path27"
           style="fill:#0070ff;fill-opacity:1;fill-rule:nonzero;stroke:#000000;stroke-width:0.0264583;stroke-opacity:1" /></g><path
         style="opacity:1;fill:#0070ff;fill-opacity:1;fill-rule:nonzero;stroke:#000000;stroke-width:0.11111;stroke-dasharray:none;stroke-opacity:1"
         d="M 388.55298,918.25439 C 387.02241,916.01212 355.27048,868.94282 317.99315,813.65594 165.94434,588.14882 120.78246,519.87329 112.87309,503.5563 87.80712,451.84534 79.937956,384.68877 91.977289,325.22857 107.30513,249.52696 157.34309,180.02408 228.02212,136.26187 c 13.43167,-8.31648 39.44807,-20.84368 54.57096,-26.27658 23.54232,-8.45758 53.71303,-15.592032 73.97409,-17.492603 28.31191,-2.655775 77.35166,-0.0879 101.94407,5.338105 73.39882,16.194528 141.81945,60.580208 184.12862,119.447498 23.39861,32.55589 40.9674,71.63876 48.12011,107.0461 7.83324,38.77618 7.12912,87.55264 -1.80702,125.17784 -6.99524,29.45311 -16.29993,50.7645 -34.57247,79.18447 -49.43374,76.88618 -218.76923,330.47103 -259.19041,388.14521 l -3.85422,5.49933 z"
         id="path2920"
         transform="scale(0.26458333)" /><g
         id="g3413"
         transform="matrix(0.12636628,0,0,0.13080143,40.530484,47.84661)"
         style="fill:#000000;stroke:#000000;stroke-opacity:1"><g
           id="g3381"
           style="fill:#000000;stroke:#000000;stroke-opacity:1"><g
             id="g3379"
             style="fill:#000000;stroke:#000000;stroke-opacity:1"><path
               d="m 604.2,748.8 c -0.5,0.5 -13.1,13.7 -37.4,16.7 -23.2,2.9 -50.9,-8.7 -55.1,-31.1 -0.1,-0.3 -0.4,-0.4 -0.5,-0.7 23.4,-9.4 46.5,-37.1 46.5,-48.9 0,-29.5 -22.4,-35.3 -61.1,-35.3 -49.2,0 -61.3,6.9 -61.3,35.3 0,14 23.5,39.6 46.9,48.4 -0.2,0.5 -0.7,0.7 -0.8,1.2 -4.4,23.1 -31.8,34.1 -54.4,31.2 -24.1,-3.1 -36.7,-16.2 -37.1,-16.6 -5.7,-6.3 -15.5,-6.9 -21.8,-1.1 -6.3,5.7 -6.9,15.4 -1.2,21.7 0.8,0.9 20.1,22 56.1,26.6 3.7,0.5 7.5,0.7 11.3,0.7 23.5,0 47.1,-9.9 62.3,-27.6 15.5,17.6 39.6,27.6 63,27.6 3.7,0 7.4,-0.2 11,-0.7 36,-4.6 55.4,-25.7 56.2,-26.6 5.6,-6.3 5.2,-15.8 -1.1,-21.5 -5.9,-5.9 -15.7,-5.5 -21.5,0.7 z M 496.6,721.7 c -20.2,0 -45.6,-29.7 -45.9,-37 0,-14.9 0,-19.9 45.9,-19.9 45.7,0 45.7,9.2 45.8,19.6 -1.4,7.6 -27.2,37.3 -45.8,37.3 z"
               id="path3359"
               style="fill:#000000;stroke:#000000;stroke-opacity:1" /><path
               d="m 618,692.9 c 4.5,0 8.1,-3.7 8.1,-8.1 0,-4.5 -3.6,-8.1 -8.1,-8.1 -4.4,0 -8.1,3.6 -8.1,8.1 0,4.4 3.7,8.1 8.1,8.1 z"
               id="path3361"
               style="fill:#000000;stroke:#000000;stroke-opacity:1" /><path
               d="m 597.7,732 c 4.4,0 8,-3.7 8,-8.1 0,-4.5 -3.6,-8.1 -8,-8.1 -4.4,0 -8.1,3.6 -8.1,8.1 0,4.5 3.7,8.1 8.1,8.1 z"
               id="path3363"
               style="fill:#000000;stroke:#000000;stroke-opacity:1" /><path
               d="m 634.2,724 c 0,4.4 3.6,8.1 8.1,8.1 4.4,0 8,-3.7 8,-8.1 0,-4.5 -3.6,-8.1 -8,-8.1 -4.5,0 -8.1,3.6 -8.1,8.1 z"
               id="path3365"
               style="fill:#000000;stroke:#000000;stroke-opacity:1" /><path
               d="m 378.1,676.7 c -4.4,0 -8.1,3.6 -8.1,8.1 0,4.3 3.7,8.1 8.1,8.1 4.4,0 8,-3.7 8,-8.1 0,-4.4 -3.6,-8.1 -8,-8.1 z"
               id="path3367"
               style="fill:#000000;stroke:#000000;stroke-opacity:1" /><path
               d="m 365.9,724 c 0,-4.5 -3.7,-8.1 -8,-8.1 -4.5,0 -8.1,3.6 -8.1,8.1 0,4.4 3.6,8.1 8.1,8.1 4.3,-0.1 8,-3.7 8,-8.1 z"
               id="path3369"
               style="fill:#000000;stroke:#000000;stroke-opacity:1" /><path
               d="m 402.4,732 c 4.4,0 8.1,-3.7 8.1,-8.1 0,-4.5 -3.7,-8.1 -8.1,-8.1 -4.3,0 -8.1,3.6 -8.1,8.1 0,4.5 3.8,8.1 8.1,8.1 z"
               id="path3371"
               style="fill:#000000;stroke:#000000;stroke-opacity:1" /><path
               d="m 385.2,562.6 c 0.2,-2.4 5,-59.2 -36,-90.7 -15.4,-11.8 -33.9,-17.8 -54.8,-17.8 -25.3,0 -45,9 -45.9,9.3 -2.6,1.2 -4.4,3.9 -4.5,6.8 -0.1,2.3 -1.2,56.9 37.4,85.2 17.7,12.8 38.6,19.3 62,19.3 v 0 c 20.8,0 35.9,-5.4 36.6,-5.5 2.9,-1.1 4.9,-3.7 5.2,-6.6 z m -48.6,-46.2 c -10.7,0 -19.4,-8.7 -19.4,-19.3 0,-10.8 8.7,-19.4 19.4,-19.4 10.7,0 19.4,8.6 19.4,19.4 0,10.7 -8.7,19.3 -19.4,19.3 z"
               id="path3373"
               style="fill:#000000;stroke:#000000;stroke-opacity:1" /><path
               d="m 758.9,462.9 c -0.8,-0.4 -20.6,-9.3 -45.9,-9.3 -20.9,0 -39.3,6 -54.8,17.8 -40.9,31.5 -36.2,88.3 -35.9,90.7 0.3,2.9 2.2,5.5 5.1,6.6 0.6,0.2 15.8,5.5 36.6,5.5 23.5,0 44.3,-6.5 62,-19.4 38.6,-28.2 37.5,-82.8 37.4,-85.1 -0.1,-3 -1.8,-5.6 -4.5,-6.8 z m -22.6,53.5 c -10.7,0 -19.5,-8.7 -19.5,-19.3 0,-10.8 8.8,-19.4 19.5,-19.4 10.7,0 19.4,8.6 19.4,19.4 0,10.7 -8.7,19.3 -19.4,19.3 z"
               id="path3375"
               style="fill:#000000;stroke:#000000;stroke-opacity:1" /><path
               d="m 984.6,636.9 c -24,-7.4 -47.5,-12.4 -70.5,-15.5 C 931.5,561.2 929.9,488.6 895.5,399.8 953.4,294.8 928.3,104 927.2,95.6 925.8,85.1 919.1,76.1 909.4,71.7 899.7,67.2 888.5,68.2 879.7,74 L 690.3,199.1 c -54,-24.3 -125.9,-39 -192.7,-39 -67.5,0 -136.1,14.2 -191.1,39.3 L 102.9,73.5 C 94,67.9 82.9,67.3 73.6,71.8 64.2,76.3 57.6,85.2 56.2,95.5 55.1,103.4 31.5,284 96.1,400.2 65.8,489.3 64.6,561.6 81.9,621.8 c -21.7,3.1 -43.9,7.9 -66.5,15 -4.1,1.3 -6.3,5.5 -5.1,9.6 1.3,4.1 5.7,6.4 9.7,5.1 22.6,-7 44.9,-11.7 66.7,-14.6 5,14.2 10.9,27.7 17.8,40.5 -24.8,6.9 -49.5,16.3 -73.9,28.2 -3.8,1.9 -5.4,6.4 -3.5,10.3 1.3,2.7 4.1,4.3 6.9,4.3 1.1,0 2.3,-0.2 3.4,-0.8 24.8,-12 49.9,-21.3 75.1,-28.1 6.3,10.4 13.2,20.5 20.7,30.1 -22.1,10.4 -44.3,24.6 -66,44.1 -3.2,2.8 -3.4,7.7 -0.6,10.9 1.5,1.7 3.6,2.5 5.7,2.5 1.8,0 3.7,-0.7 5.1,-2 21.6,-19.4 43.7,-33.4 65.5,-43.3 41.3,49.2 95.4,88.4 149.4,123.5 42.4,27.6 125.5,74 205.3,74 62.9,0 145.3,-29.2 210,-74.6 46.6,-32.7 102.6,-72 146.2,-124.4 22.9,10 46.1,24.4 68.8,44.8 1.5,1.3 3.3,2 5.2,2 2.1,0 4.2,-0.8 5.7,-2.5 2.8,-3.2 2.6,-8.1 -0.5,-10.9 -22.8,-20.5 -46.2,-35.2 -69.3,-45.7 7.2,-9.4 13.9,-19.3 20.1,-29.5 26.5,6.8 52.9,16.4 79,29.1 1.1,0.5 2.2,0.8 3.4,0.8 2.8,0 5.6,-1.6 6.9,-4.3 1.9,-3.9 0.3,-8.4 -3.5,-10.3 -25.7,-12.5 -51.7,-22.2 -77.8,-29.2 6.8,-12.7 12.8,-26 17.8,-40.1 23,2.9 46.7,7.8 70.6,15.2 4.1,1.3 8.4,-1 9.6,-5.1 1.1,-4 -1.2,-8.2 -5.2,-9.5 z M 851,348.7 c -19.4,-20.2 -39.5,-34.5 -45.4,-24.9 -6.3,10.3 9.7,53.5 25.1,81.5 0.6,1.1 1.3,1.1 1.9,1.9 0.2,0.5 0,1.1 0.2,1.7 7.7,18.4 13.3,35.6 18.1,52.2 -21.7,-15.1 -62.2,-31.6 -62.2,-10.2 0.1,25.1 57.7,98.6 72.9,123.5 -2.1,15.1 -5.9,29.3 -10.8,42.9 -110.3,0.5 -193.8,39.4 -205.2,48 -3.4,2.5 -4.1,7.3 -1.5,10.8 1.5,2 3.8,3.1 6.1,3.1 1.6,0 3.3,-0.5 4.6,-1.6 10.1,-7.5 87.6,-42.5 189.5,-44.6 -5,11 -10.9,21.5 -17.6,31.8 -54,-5.2 -108.7,1 -163.4,18.8 -2.6,0.8 -4.6,1.5 -6,1.9 -4.1,1.1 -6.4,5.4 -5.3,9.5 1.1,4.1 5.4,6.3 9.5,5.3 1.6,-0.4 3.8,-1.1 6.6,-2 49.7,-16.2 99.3,-22.6 148.4,-19 -5.4,7.2 -11.2,14.3 -17.4,21.2 -57.1,-9.4 -106.4,1.4 -131.8,7 l -5,1.1 c -4.2,0.9 -6.8,5 -5.9,9.1 0.9,4.2 5.1,6.8 9.1,5.9 l 5.1,-1.1 c 24.5,-5.5 66.8,-14.8 115.8,-8.7 -31.8,32.3 -71.2,61.9 -114.5,92.3 -54.1,37.9 -124.3,63.4 -174.6,63.4 -46.7,0 -109.2,-23.3 -171.7,-64 -43.2,-28.1 -84,-57.2 -117,-91 50.9,-7.2 94.9,2.4 120.2,8 l 5.2,1.1 c 4.1,0.9 8.3,-1.7 9.1,-5.9 0.9,-4.2 -1.7,-8.2 -5.9,-9.1 l -5.1,-1.1 c -25.9,-5.7 -77,-16.8 -135.8,-6.2 -6.1,-7 -11.8,-14.1 -17.2,-21.5 50.4,-4.1 101.3,2 152.3,18.6 2.8,0.9 5,1.6 6.6,2 4,1 8.4,-1.3 9.5,-5.3 1.2,-4.1 -1.2,-8.4 -5.3,-9.5 -1.4,-0.4 -3.5,-1.1 -6,-1.9 -56,-18.2 -111.8,-24.3 -167,-18.5 C 162.7,655 157,644.3 152.1,633 c 103.4,1.4 182.5,37 192.7,44.6 1.4,1.1 3,1.6 4.6,1.6 2.3,0 4.7,-1.1 6.2,-3.1 2.6,-3.4 1.9,-8.2 -1.6,-10.8 -11.5,-8.6 -96.4,-48.2 -208.1,-48 -5.8,-16.6 -10,-34.3 -11.9,-53.3 21.1,-30.9 66,-91 66.1,-113.1 0,-19.7 -34.4,-7.2 -56.8,6.8 4,-16 8.7,-32.5 15.2,-50.1 0.5,-1.2 0.2,-2.5 0.5,-3.7 15.1,-28 30.6,-69.9 24.4,-80 -5.8,-9.5 -25.2,4.2 -44.4,23.8 -26,-63.1 -28.1,-144.2 -25.9,-195.1 l 175.1,108.2 c 9.2,5.8 20.8,6.1 30.5,1.1 6.1,-3.2 13.4,-5.7 20.1,-8.6 13.5,22.2 37.7,54.4 46,63.9 14.3,16.6 50.6,-66.8 37.7,-88.1 10.8,-1.9 21.6,-3.7 32.6,-4.8 -15.5,37.4 13.6,126.8 33.3,108.2 18.1,-17.1 60.7,-77.6 63.9,-106.7 15.3,2 30.6,4.5 45.3,7.9 -8.8,28.5 0.8,76.9 -0.2,92.9 -1,16.6 60.8,-28.3 85.6,-63.6 8.8,2.9 18.5,2.6 26.4,-2.7 L 870.5,153.9 c 3.5,57.6 1.8,138.9 -19.5,194.8 z"
               id="path3377"
               style="fill:#000000;stroke:#000000;stroke-opacity:1" /></g></g><g
           id="g3383"
           style="fill:#000000;stroke:#000000;stroke-opacity:1" /><g
           id="g3385"
           style="fill:#000000;stroke:#000000;stroke-opacity:1" /><g
           id="g3387"
           style="fill:#000000;stroke:#000000;stroke-opacity:1" /><g
           id="g3389"
           style="fill:#000000;stroke:#000000;stroke-opacity:1" /><g
           id="g3391"
           style="fill:#000000;stroke:#000000;stroke-opacity:1" /><g
           id="g3393"
           style="fill:#000000;stroke:#000000;stroke-opacity:1" /><g
           id="g3395"
           style="fill:#000000;stroke:#000000;stroke-opacity:1" /><g
           id="g3397"
           style="fill:#000000;stroke:#000000;stroke-opacity:1" /><g
           id="g3399"
           style="fill:#000000;stroke:#000000;stroke-opacity:1" /><g
           id="g3401"
           style="fill:#000000;stroke:#000000;stroke-opacity:1" /><g
           id="g3403"
           style="fill:#000000;stroke:#000000;stroke-opacity:1" /><g
           id="g3405"
           style="fill:#000000;stroke:#000000;stroke-opacity:1" /><g
           id="g3407"
           style="fill:#000000;stroke:#000000;stroke-opacity:1" /><g
           id="g3409"
           style="fill:#000000;stroke:#000000;stroke-opacity:1" /><g
           id="g3411"
           style="fill:#000000;stroke:#000000;stroke-opacity:1" /></g></g></g></svg>
