<svg xmlns="http://www.w3.org/2000/svg" xml:space="preserve" width="305" height="400" version="1.2"><switch transform="translate(22.604 .491)"><g><path fill="#005fab" d="M130.121 400s122.844-140.394 129.485-244.108C266.235 52.372 201.633.004 130.121.004 58.608.004-5.992 52.372.636 155.892 7.276 259.606 130.121 400 130.121 400Z"/><circle cx="129.646" cy="130.596" r="75.415" fill="#fff"/></g></switch><path d="M114.262 79.537c-.913.118-1.804.296-1.96.375-.446.256-1.916 2.286-2.874 3.982-1.96 3.43-2.829 6.998-2.806 11.433 0 3.627.668 6.525 2.094 9.167l.89 1.695-.734 1.163c-1.649 2.583-2.807 5.362-3.565 8.437-.69 2.878-.69 8.24 0 11.099 1.894 7.826 7.485 15.632 14.547 20.344l1.024.67.134 1.616c.089.868.29 2.011.468 2.524l.334.926-.713.375c-2.139 1.104-4.188 3.528-4.945 5.874l-.49 1.498-.49-.69c-.646-.926-2.317-2.267-3.297-2.641-1.314-.473-3.23-.375-4.544.276-1.248.591-1.96 1.261-2.718 2.503-.379.65-.49 1.144-.49 2.484 0 1.44.089 1.834.624 2.8 1.225 2.207 4.232 4.514 7.373 5.657 1.158.414 1.715.493 3.809.493 1.359 0 3.252-.079 4.232-.158 2.696-.256 3.275-.04 5.614 2.03 1.492 1.321 2.227 1.814 3.074 2.07.624.198 1.314.454 1.56.572 2.093 1.025 3.83 1.222 5.412.611.446-.177 1.693-.473 2.762-.67 1.047-.197 2.518-.591 3.253-.887l1.336-.532 1.203.808c2.629 1.735 5.77 2.543 10.76 2.72 3.63.119 5.568-.04 10.135-.847 6.438-1.144 10.447-2.701 13.299-5.185 2.628-2.287 4.522-5.145 4.99-7.471.49-2.405-.49-4.81-2.25-5.618-1.404-.65-5.013-.04-8.02 1.36-2.138 1.005-4.143 2.385-8.108 5.697-4.01 3.312-5.703 4.534-7.44 5.303-3.275 1.478-6.728 1.42-8.844-.138l-.668-.493.601-.572c1.159-1.064 4.946-8.93 5.792-11.985l.512-1.834 1.782-.236c6.572-.828 12.831-2.918 18.289-6.13 3.074-1.814 7.663-5.796 9.49-8.26 2.472-3.352 4.21-7.018 4.945-10.449.2-.906.378-1.675.423-1.695.022-.02.713-.315 1.537-.63 8.487-3.391 15.326-13.366 15.326-22.336v-1.715l-1.582-1.4c-3.074-2.72-6.594-4.651-10.336-5.657-1.871-.512-2.294-.552-6.014-.552-3.72-.02-4.188.02-6.46.552-1.337.296-3.498.907-4.767 1.32l-2.317.77-1.136-.77c-4.723-3.193-10.848-5.814-16.885-7.214-4.879-1.124-6.66-1.32-12.319-1.4l-5.123-.059-1.203-1.439c-1.604-1.892-5.346-5.204-7.061-6.21-2.963-1.774-5.592-2.76-8.777-3.292-2.116-.354-6.237-.374-8.688-.039Zm9.022 1.222c6.482 1.163 11.85 5.066 17.264 12.538.913 1.261 1.515 1.932 1.782 1.932.735 0 .646-.552-.334-1.913-.557-.729-1.003-1.4-1.003-1.478 0-.276 3.92-.375 6.817-.177 6.95.512 12.095 1.715 18.02 4.258 2.696 1.143 7.263 3.646 7.886 4.317.245.236.134.355-.646.71-.623.275-.89.532-.846.748.134.533.936.375 4.188-.808 5.547-2.03 9.623-2.819 13.588-2.622 5.235.257 9.623 1.991 14.034 5.599l1.67 1.36-.022 1.656c-.133 8.141-6.126 17.249-13.633 20.699-.757.335-2.16.828-3.118 1.064-1.381.355-1.738.532-1.782.868-.067.414.089.492 1.024.414.624-.04.624.059-.066 2.405-2.807 9.777-11.428 17.524-23.412 21.053-2.74.808-5.814 1.44-8.153 1.676l-1.292.138v-1.558c0-2.957-1.314-5.795-3.653-7.845-2.295-2.03-4.612-2.603-6.84-1.735-1.09.433-2.628 1.794-3.274 2.957-1.069 1.813-1.069 5.184-.022 7.629.535 1.261.668 1.38 1.203 1.025.379-.237.379-.316-.134-1.518-.423-1.045-.534-1.636-.534-3.43 0-2.583.378-3.47 2.094-4.889 1.358-1.124 2.606-1.36 4.187-.828 2.072.71 4.255 3.036 5.213 5.579.646 1.656.69 4.928.111 7.018-.49 1.774-2.294 5.854-4.032 9.107-1.27 2.385-1.537 2.72-3.23 4.18-1.915 1.675-3.586 2.779-5.19 3.39-1.136.434-2.472.69-2.339.473 1.805-3.272 2.183-4.87 1.649-7.136-.379-1.597-.936-2.642-1.916-3.548-2.985-2.76-7.507-1.735-9.69 2.207-1.27 2.267-1.448 5.008-.468 7.097.2.434.312.808.245.867-.067.06-.935-.63-1.938-1.537-1.024-.887-2.25-1.774-2.74-1.971-1.292-.513-3.163-.67-4.7-.395-2.005.375-4.878.316-6.326-.138-2.34-.749-5.458-2.838-6.616-4.455-.847-1.183-1.248-2.858-.958-4.002.668-2.66 3.386-4.198 5.903-3.35 1.337.453 3.052 2.148 3.72 3.666.512 1.163.69 1.3 1.381 1.064.268-.098.357-.414.357-1.38 0-2.385 1.292-4.79 3.63-6.741 1.092-.907 1.894-1.321 4.055-2.13.356-.137.245-.177-.49-.236-.958-.06-.958-.06-1.315-1.163-.49-1.498-.334-3.982.312-5.106 1.114-1.932 3.008-3.075 5.057-3.114 3.119-.04 4.522 2.799 3.341 6.761-.29 1.025-.312 1.301-.067 1.42.646.374.958.059 1.337-1.302 1.27-4.73-.624-7.983-4.678-7.983-2.272 0-4.945 1.596-6.037 3.587-.267.533-.557.947-.623.947-.335 0-3.208-2.228-5.012-3.923-2.763-2.583-4.79-5.106-6.527-8.2-2.562-4.574-3.43-7.512-3.609-12.361-.089-2.563-.044-3.726.245-5.322.49-2.524 1.582-5.48 2.918-7.846l1.047-1.834 1.003 1.026c.712.71 1.158 1.005 1.47.965.757-.098.668-.453-.401-1.557-5.012-5.165-6.037-14.528-2.406-22.197.446-.907 1.27-2.326 1.871-3.114 1.159-1.597 1.025-1.538 4.099-1.873 1.916-.217 5.28-.079 7.351.315zm58.095 79.72c.825.847 1.114 1.833 1.003 3.331-.29 3.588-3.899 7.826-8.398 9.857-6.728 3.016-17.353 4.278-24.036 2.858-1.693-.374-3.63-1.143-4.811-1.951l-.825-.552 1.404-1.144c.78-.63 1.515-1.143 1.67-1.163.134 0 .535.217.891.473 1.181.868 2.094 1.163 4.1 1.262 4.432.217 6.816-.927 13.565-6.486 4.144-3.41 5.703-4.514 7.908-5.618 1.626-.788 4.188-1.439 5.836-1.439 1.003-.02 1.203.06 1.693.572zm-44.796 3.607c3.118 1.676 3.787 6.308 1.38 9.561-2.472 3.351-6.548 3.095-8.42-.532-.668-1.321-.645-4.219.045-5.756.602-1.321 1.983-2.8 3.14-3.332 1.137-.532 2.808-.512 3.855.06z" class="UnoptimicedTransforms"/><path d="M115.822 88.014c-.87 1.695-1.515 3.942-1.827 6.347-.245 1.853-.223 2.13.223 3.608.534 1.734 1.982 4.75 2.316 4.75.112 0 1.07-.67 2.117-1.498 2.36-1.813 5.012-3.41 7.24-4.317 1.76-.71 5.1-1.636 6.214-1.715.357-.02.646-.118.646-.217 0-.65-1.648-2.799-3.23-4.179-3.03-2.68-6.705-4.041-10.96-4.041h-2.093zm7.484-.395c2.139.611 4.611 1.991 6.26 3.49 1.203 1.123 2.74 3.055 2.74 3.47 0 .137-.424.334-.936.452-2.317.493-5.324 1.479-6.994 2.287-1.716.828-4.545 2.642-6.772 4.396-.557.434-1.07.73-1.159.65-.312-.295-1.76-3.646-2.071-4.849-.268-1.025-.29-1.636-.112-3.252.334-2.878 1.649-6.624 2.54-7.176.534-.335 4.655 0 6.504.532zm61.348 17.584c-.668.158-1.96.592-2.874.986l-1.648.69.78.73c1.202 1.084 3.252 3.705 4.12 5.263 1.181 2.05 1.805 3.647 2.63 6.663.422 1.518.779 2.78.823 2.819.156.118 3.32-1.676 4.611-2.602 1.627-1.183 2.094-1.755 3.498-4.337 1.069-1.952 2.316-5.382 2.316-6.387 0-.966-3.853-3.075-6.86-3.765-2.028-.454-5.592-.493-7.396-.06zm7.24.276c2.628.592 5.791 2.15 6.549 3.194.69.966-1.85 7.156-3.876 9.502-.669.768-3.208 2.523-4.834 3.37-.802.395-1.092.474-1.159.257-.044-.138-.356-1.282-.69-2.523-1.158-4.357-2.985-7.748-5.792-10.823-1.27-1.4-1.292-1.459-.89-1.735 2.227-1.498 7.105-2.05 10.692-1.242zm-70.192 11.316c-2.45.532-4.588 2.188-5.457 4.238-.668 1.557-.535 3.864.312 5.382 1.069 1.912 3.118 3.292 5.546 3.686 3.409.552 6.906-1.084 8.376-3.883.802-1.518.847-3.983.09-5.422-1.048-2.07-2.852-3.41-5.28-3.982-1.537-.354-2.05-.354-3.587-.02zm7.017 2.799c1.649 1.222.29 3.647-1.826 3.292-1.693-.296-2.295-2.149-1.07-3.233.87-.749 1.938-.769 2.896-.06zm35.976 6.19c-4.054.749-6.705 4.16-6.06 7.806.803 4.514 6.416 6.998 11.094 4.909 1.426-.631 3.119-2.346 3.676-3.667 1.158-2.839-.067-6.367-2.763-7.925-1.76-1.025-4.12-1.458-5.947-1.123zm6.838 2.937c.847.75.87 1.715.09 2.543-1.515 1.597-4.322.237-3.676-1.754.468-1.42 2.384-1.834 3.586-.789zm-27.421-1.163c-.58.513-.557 1.163.044 2.267.58 1.064.468 1.36-.846 2.01-1.047.553-3.252.612-4.5.139-1.024-.375-1.938-1.124-2.272-1.873-.267-.572-.735-.75-1.002-.375-.223.336.913 1.853 1.76 2.366l.757.473-.112 1.32c-.2 2.17.691 3.884 2.54 4.85.913.473 1.292.552 2.74.533 1.982 0 3.03-.414 4.7-1.794 1.092-.907 1.092-.907 2.762-.927 1.248-.02 1.76-.098 2.05-.355.512-.473.111-.887-.557-.571-.758.354-2.651.256-3.676-.198-1.67-.749-2.606-1.813-2.94-3.35l-.156-.69 1.537-.69c1.426-.631 1.515-.71 1.582-1.4.066-.592-.023-.789-.49-1.065-.335-.177-.78-.276-1.07-.217-.334.08-.624-.02-.98-.354-.624-.592-1.27-.631-1.871-.099zm1.715.315c.401.355.713.474 1.047.395 1.092-.237 1.96 1.044 1.136 1.656-.312.236-2.472 1.182-2.695 1.182-.178 0-1.426-2.385-1.426-2.74 0-.355.758-1.005 1.18-1.005.09 0 .446.236.758.512zm-1.047 4.613c0 .375-.445.533-.735.257-.178-.138.245-.651.535-.651.111 0 .2.177.2.394zm-.267.67c.267.08.646.395.824.69.178.316.824.966 1.448 1.46.958.768 1.114.965.913 1.28-.29.474-1.782 1.4-2.851 1.735-3.03.947-6.059-.867-6.081-3.666 0-1.715-.067-1.676 2.74-1.676 1.38.02 2.717.079 3.007.177z"/><path d="M149.474 396.29c-6.308-7.495-21.235-26.436-28.665-36.373-49.807-66.609-82.602-128.836-93.327-177.086-5.763-25.925-5.919-54.014-.443-79.863 4.447-20.996 13.612-40.783 26.181-56.53C77.293 16.278 115.681-.524 157.248.903c33.495 1.15 62.601 13.024 84.85 34.614 21.73 21.087 34.613 48.67 39.076 83.664 1.235 9.68 1.237 36.45.004 45.683-6.489 48.584-34.959 108.928-83.81 177.641-14.451 20.327-43.377 57.348-44.704 57.215-.181-.018-1.616-1.562-3.19-3.43zm18.094-191.123c6.827-1.453 12.848-3.583 19.028-6.73 7.35-3.744 13.034-7.895 19.055-13.916 10.628-10.628 17.384-23.064 20.755-38.202 1.459-6.554 1.576-22.629.214-29.348-2.048-10.103-6.072-19.853-11.683-28.305-3.972-5.983-13.795-15.855-19.851-19.95-19.794-13.382-43.974-16.815-66.397-9.426-11.583 3.816-21.374 9.828-29.908 18.361-29.253 29.253-29.514 76.698-.586 106.3 11.582 11.851 27.533 19.913 43.827 22.15 5.746.79 19.878.273 25.546-.934z" style="fill:#6e38f7;stroke:#000;stroke-width:.0575751;fill-opacity:1"/></svg>