<?xml version="1.0" encoding="utf-8"?>
<!-- Svg Vector Icons : http://www.onlinewebfonts.com/icon -->
<!DOCTYPE svg PUBLIC "-//W3C//DTD SVG 1.1//EN" "http://www.w3.org/Graphics/SVG/1.1/DTD/svg11.dtd">
<svg version="1.1" xmlns="http://www.w3.org/2000/svg" xmlns:xlink="http://www.w3.org/1999/xlink" x="0px" y="0px" viewBox="0 0 1000 1000" enable-background="new 0 0 1000 1000" xml:space="preserve">
<g><g transform="translate(0.000000,511.000000) scale(0.100000,-0.100000)"><path d="M4486.7,5016.8C3349.3,4846.9,2514.2,4469.7,1708,3755.6C86.9,2324.5-368.1-114.4,616.7-2081c679.5-1362,1992.6-2346.7,3524.4-2649.1c489.5-95,1290-97.9,1762.2-2.9C7654-4381.7,9082.2-3149.3,9649.5-1496.5C9851-912,9900-601,9900,110.2c0,541.3-8.6,662.3-69.1,950.2c-365.7,1768-1586.6,3153-3291.2,3728.9c-509.7,172.8-800.5,218.8-1419.6,230.4C4820.7,5025.4,4535.6,5022.6,4486.7,5016.8z M5865.9,4697.2l253.4-51.8l158.4-273.5c86.4-149.7,236.1-411.8,331.1-581.7l172.8-308.1l-417.5-757.3l-417.5-757.3h-915.7h-915.6l-141.1,244.8c-77.8,135.3-270.7,478-429,760.2c-276.4,495.3-287.9,521.2-247.6,590.3c23,40.3,175.6,302.3,336.9,581.7l293.7,506.8l293.7,48.9c161.3,25.9,334,51.8,380.1,57.6C4794.8,4786.4,5621.1,4743.2,5865.9,4697.2z M3522,4501.4c0-8.6-480.9-843.7-501-866.7c0-2.9-247.6-14.4-550-23l-547.1-20.2l115.2,103.7c149.7,138.2,581.7,426.1,803.4,538.5C3205.3,4417.9,3522,4544.6,3522,4501.4z M7003.3,4311.3c368.6-175.6,714.1-391.6,964.6-598.9l138.2-118.1H7821c-158.4,0-406,8.6-547.1,17.3l-262,20.1l-239,417.5c-132.5,230.4-247.6,429-253.4,443.4C6502.3,4538.8,6620.3,4495.6,7003.3,4311.3z M3101.6,3222.9c40.3-74.9,230.4-414.6,423.3-754.4c192.9-339.8,351.3-627.7,351.3-645c0-14.4-195.8-368.6-437.7-780.3l-437.7-751.5l-132.5-20.2c-72-8.6-478-17.3-904.1-17.3h-771.7l-120.9,210.2c-66.2,112.3-216,365.7-334,561.5l-213.1,354.2l46.1,161.3c152.6,524,524.1,1180.6,944.4,1664.3l100.8,115.2l613.3,14.4c339.8,8.6,659.4,20.2,708.3,23C3023.9,3364,3038.3,3352.5,3101.6,3222.9z M8520.7,3176.8c239-273.5,478-633.5,647.9-979c187.2-383,325.4-771.7,305.2-852.3c-8.6-31.7-155.5-293.7-325.4-587.4l-311-532.7h-884h-884l-449.2,771.7c-247.6,426.2-449.2,780.3-449.2,789c0,8.6,149.7,282.2,334,601.8c184.3,322.5,374.3,668,426.2,768.8l89.3,181.4l685.3-8.6l688.2-8.6L8520.7,3176.8z M6364.1,902.1c241.9-411.8,434.8-768.8,429-794.7c-5.7-23-207.3-382.9-446.3-797.6l-440.6-754.4l-895.5,5.8l-898.4,8.6l-452.1,777.4c-406,694-449.2,783.2-414.6,835c20.2,31.7,221.7,377.2,449.2,771.7l414.6,711.2l909.9-5.8l907-8.6L6364.1,902.1z M708.8,527.8C991,61.3,996.8,176.5,662.8-390.8c-190-325.4-204.4-339.8-233.2-273.6c-54.7,129.6-31.7,1661.4,25.9,1603.8C461.2,936.6,573.5,749.5,708.8,527.8z M9638,182.2c2.9-503.9-25.9-907-63.3-907c-11.5,2.9-129.6,184.3-259.2,408.9L9073.6,93l66.2,115.2c34.6,66.2,149.7,262,253.4,434.8l187.2,316.7l25.9-129.6C9620.7,758.1,9635.1,467.3,9638,182.2z M3424.1-782.4l446.3-760.2l-95-175.7c-48.9-95-241.9-443.4-429-777.4l-334-604.7l-688.2,8.6L1636-3083l-138.2,149.7c-348.4,380.1-725.6,1033.7-898.4,1552l-72,221.7l247.6,423.3c138.2,236.1,293.7,495.2,348.4,578.8l97.9,152.6l878.2-5.8l881.1-8.6L3424.1-782.4z M8946.9-215.1c60.5-97.9,207.3-345.5,328.2-550l216-371.5l-51.8-161.2c-190-610.4-616.2-1350.5-984.8-1707.5l-109.4-106.5l-659.4-5.8l-659.4-2.9l-120.9,210.2c-66.2,118-264.9,469.3-440.5,780.3l-322.5,564.4l227.5,385.9c123.8,210.2,325.4,555.7,446.3,765.9l224.6,380.1h895.5h898.4L8946.9-215.1z M6061.7-2020.5c443.4-777.4,685.3-1223.7,685.3-1267c0-23-132.4-276.4-293.7-561.5c-204.4-354.2-319.6-529.8-368.6-552.9c-40.3-17.3-221.7-54.7-403.1-83.5c-604.7-86.4-1675.8-14.4-1779.5,126.7c-23,25.9-175.6,285.1-342.7,575.9c-285.1,492.4-302.3,532.7-270.7,604.7c20.2,43.2,213.1,391.6,429,771.7l391.6,696.8l889.7-5.7l889.8-2.9L6061.7-2020.5z M3213.9-3710.8c106.5-187.2,224.6-394.5,264.9-460.7c43.2-69.1,69.1-123.8,60.5-123.8c-8.6,0-97.9,31.7-195.8,69.1c-414.6,155.5-944.4,460.7-1272.7,734.2l-138.2,118h544.2H3021L3213.9-3710.8z M8042.8-3399.8c0-37.4-383-316.7-665.1-486.6C7130-4036.2,6580-4283.8,6557-4257.9c-8.7,8.6,92.1,201.6,224.6,431.9l239,420.4l489.5,8.6c270.7,5.8,498.1,14.4,512.5,17.3C8034.1-3376.7,8042.8-3385.4,8042.8-3399.8z" fill="currentColor"/></g></g>
</svg>
