<?xml version="1.0" encoding="utf-8"?>
<!-- Svg Vector Icons : http://www.onlinewebfonts.com/icon -->
<!DOCTYPE svg PUBLIC "-//W3C//DTD SVG 1.1//EN" "http://www.w3.org/Graphics/SVG/1.1/DTD/svg11.dtd">
<svg version="1.1" xmlns="http://www.w3.org/2000/svg" xmlns:xlink="http://www.w3.org/1999/xlink" x="0px" y="0px" viewBox="0 0 1000 1000" enable-background="new 0 0 1000 1000" xml:space="preserve">
<g><g transform="translate(0.000000,512.000000) scale(0.100000,-0.100000)"><path d="M4890.9,5002.2C4795.2,4962,335.4,2429.7,293.3,2391.4c-135.9-122.5-109.1-310.1,57.4-396.2c72.7-36.4,156.9-36.4,4637.8-36.4c4157.3,0,4572.7,1.9,4643.5,30.6c178,70.8,216.3,275.6,74.7,402c-38.3,34.5-828.8,484.3-4283.7,2438.5C5097.6,5013.7,4994.3,5048.2,4890.9,5002.2z" fill="currentColor"/><path d="M1129.8,1595.2c-47.9-49.8-55.5-68.9-45.9-120.6c15.3-82.3,74.6-128.2,166.5-128.2h74.6V-491.1v-1837.5h-68.9c-99.5,0-189.5-91.9-172.3-178c24.9-132.1-5.7-128.2,972.3-128.2h878.5l45.9,47.9c105.3,105.3,19.1,258.4-143.6,258.4h-57.4v1837.5v1837.5h76.6c88,0,172.3,65.1,172.3,132.1c0,63.2-40.2,130.2-90,153.1c-30.6,15.3-313.9,21.1-897.7,21.1h-853.7L1129.8,1595.2z" fill="currentColor"/><path d="M4108,1629.6c-45.9-21-84.2-91.9-84.2-151.2c0-67,84.2-132.1,172.3-132.1h76.6V-491.1v-1837.5h-57.4c-162.7,0-248.8-153.1-143.6-258.4l45.9-47.9H5000h882.4l45.9,47.9c105.3,105.3,19.1,258.4-143.6,258.4h-57.4v1837.5v1837.5h76.6c88,0,172.3,65.1,172.3,132.1c0,63.2-40.2,130.2-90,153.1C5825,1660.3,4165.5,1658.4,4108,1629.6z" fill="currentColor"/><path d="M7057.6,1629.6c-149.3-86.1-90-283.3,86.1-283.3h76.6V-491.1v-1837.5h-57.4c-162.7,0-248.8-153.1-143.6-258.4l45.9-47.9h878.5c978.1,0,947.5-3.8,972.3,128.2c17.2,86.1-72.7,178-172.3,178H8675v1837.5v1837.5h74.7c91.9,0,151.2,45.9,166.5,128.2c9.6,51.7,1.9,70.8-45.9,120.6l-57.4,57.4h-859.4C7344.7,1650.7,7084.4,1645,7057.6,1629.6z" fill="currentColor"/><path d="M662.7-2964.1c-68.9-32.5-84.2-99.5-84.2-380.9c0-258.4,1.9-269.9,47.9-313.9l45.9-47.9h4323.9c4228.2,0,4325.8,0,4369.8,36.4c44,34.4,45.9,49.8,51.7,308.2c7.7,296.7-7.6,363.7-84.2,400C9268.4-2933.5,722.1-2933.5,662.7-2964.1z" fill="currentColor"/><path d="M184.2-4036c-68.9-32.5-84.2-99.5-84.2-359.8c0-266.1,15.3-327.3,90-361.8c65.1-30.6,9555-30.6,9620.1,0c74.6,34.5,90,95.7,90,361.8s-15.3,327.3-90,361.8C9746.9-4005.3,243.6-4007.3,184.2-4036z" fill="currentColor"/></g></g>
</svg>
