<?xml version="1.0" encoding="utf-8"?>
<!-- Svg Vector Icons : http://www.onlinewebfonts.com/icon -->
<!DOCTYPE svg PUBLIC "-//W3C//DTD SVG 1.1//EN" "http://www.w3.org/Graphics/SVG/1.1/DTD/svg11.dtd">
<svg version="1.1" xmlns="http://www.w3.org/2000/svg" xmlns:xlink="http://www.w3.org/1999/xlink" x="0px" y="0px" viewBox="0 0 1000 1000" enable-background="new 0 0 1000 1000" xml:space="preserve">
<metadata> Svg Vector Icons : http://www.onlinewebfonts.com/icon </metadata>
<g><g transform="translate(0.000000,511.000000) scale(0.100000,-0.100000)"><path d="M1112.4,4986.1c-475.7-79.3-908.2-519-985-1006.7c-36-211.4-36-7517.6-2.4-7736.2C201.8-4249.3,641.5-4689,1134-4765.9c218.6-33.7,7524.8-33.7,7736.2,2.4c504.5,81.7,929.8,511.8,1009.1,1018.7c16.8,115.3,24,1343,19.2,3964.2c-7.2,3788.8-7.2,3796-57.7,3933c-163.4,444.5-538.2,768.8-970.6,836.1C8673.2,5019.8,1297.4,5017.4,1112.4,4986.1z M6160.2,2437l7.2-1160.4l1160.5-7.2l1158-4.8V111.4v-1153.2l-1158-4.8l-1160.5-7.2l-7.2-1158l-4.8-1160.4H5002.1H3848.9l-4.8,1160.4l-7.2,1158l-1158,7.2l-1160.4,4.8V111.4v1153.2l1160.4,4.8l1158,7.2l7.2,1160.4l4.8,1158h1153.2h1153.2L6160.2,2437z" fill="currentColor"/></g></g>
</svg>
