<svg xmlns="http://www.w3.org/2000/svg" viewBox="0 0 1000 1000" xml:space="preserve"><path d="m31.2 298.8 454.4 247.6c4.6 2.5 9.6 3.7 14.6 3.7s10-1.2 14.5-3.7l459.1-247.6c10-5.4 16.2-15.9 16.1-27.3-.1-11.4-6.6-21.8-16.7-27L518.9 13.7c-8.7-4.4-18.9-4.4-27.6-.1l-459.2 231C22 249.7 15.4 260 15.3 271.4c-.2 11.4 5.9 22 15.9 27.4zM504.9 75.3l388.4 197.4-393 212L111.9 273l393-197.7zM968 469.7l-90.8-46.1-65.6 35.4 76.5 38.9-393 212L106.6 498l81.6-41-65.4-35.7-95.9 48.2C16.8 474.6 10.2 485 10 496.4c-.2 11.4 6 22 16 27.4l454.4 247.6c4.6 2.5 9.6 3.7 14.6 3.7s10-1.2 14.5-3.7l459.2-247.6c10-5.4 16.2-15.9 16.1-27.3-.2-11.3-6.7-21.7-16.8-26.8zm0 214.3-86-42.3-65.6 35.4 71.7 35.1-393 212-388.5-211.8 75.9-34.3-65.4-35.7L26.9 684c-10.1 5.1-16.7 15.5-16.9 26.9-.2 11.4 6 22 16 27.4l454.4 247.6c4.6 2.5 9.6 3.7 14.6 3.7s10-1.2 14.5-3.7l459.2-247.6c10-5.4 16.2-15.9 16.1-27.3-.2-11.4-6.7-21.8-16.8-27z" fill="currentColor"/></svg>