<svg xmlns="http://www.w3.org/2000/svg" viewBox="0 0 1000 1000" xml:space="preserve"><g fill="currentColor"><path d="M987.2 381.3c6.5 12.7 1.4 28.3-11.3 34.8L514.8 651c-12.7 6.5-28.3 1.4-34.8-11.3-6.5-12.7-1.4-28.3 11.3-34.8l461-234.9c12.8-6.5 28.4-1.4 34.9 11.3z"/><path d="M12.8 381.3c-6.5 12.7-1.4 28.3 11.3 34.8l461 234.9c12.7 6.5 28.3 1.4 34.8-11.3 6.5-12.7 1.4-28.3-11.3-34.8L47.7 370c-12.8-6.5-28.4-1.4-34.9 11.3zM987.2 403.7c6.5-12.7 1.4-28.3-11.3-34.8L514.8 134c-12.7-6.5-28.3-1.4-34.8 11.3-6.5 12.7-1.4 28.3 11.3 34.8l461 234.9c12.8 6.5 28.4 1.4 34.9-11.3z"/><path d="M12.8 403.7c-6.5-12.7-1.4-28.3 11.3-34.8l461-234.9c12.7-6.5 28.3-1.4 34.8 11.3 6.5 12.7 1.4 28.3-11.3 34.8L47.7 414.9c-12.8 6.6-28.4 1.5-34.9-11.2zM732.8 506.7c-14.2 0-25.9 11.6-25.9 25.9v235.6c-8.2 4-17 7.4-25.5 11-55.8 24-116.9 38-181.4 38-64.6 0-125.6-14.1-181.4-38-8.5-3.7-17.2-6.9-25.5-10.9V532.5c0-14.3-11.6-25.9-25.9-25.9s-25.9 11.6-25.9 25.9v244.7c0 11.8 5.7 22.2 14.2 29.2 4.6 2.4 9.2 5 13.9 7.3 1.2.7 2.5 1.3 3.7 2 68.6 33.6 145.4 53 226.9 53s158.4-19.4 226.9-52.9c1.2-.6 2.5-1.2 3.7-1.9 4.7-2.3 9.3-4.9 14-7.4 8.5-7.1 14.1-17.4 14.1-29.3V532.5c0-14.2-11.7-25.8-25.9-25.8zM137.8 643.9V444.6c0-14.3-11.6-25.9-25.9-25.9-14.3 0-25.9 11.5-25.9 25.9V644c-15.2 9-25.9 24.8-25.9 43.8 0 28.7 23.2 51.7 51.7 51.7s51.7-23.1 51.7-51.7c.2-19-10.5-34.9-25.7-43.9z"/></g></svg>