<svg xmlns="http://www.w3.org/2000/svg" viewBox="0 0 1000 1000" xml:space="preserve"><path d="M111.24 12.39c-47.57 7.93-90.82 51.9-98.5 100.67-3.6 21.14-3.6 751.76-.24 773.62 7.68 49.25 51.65 93.22 100.9 100.91 21.86 3.37 752.48 3.37 773.62-.24 50.45-8.17 92.98-51.18 100.91-101.87 1.68-11.53 2.4-134.3 1.92-396.42-.72-378.88-.72-379.6-5.77-393.3-16.34-44.45-53.82-76.88-97.06-83.61-19.7-3.13-757.28-2.89-775.78.24zM616.02 267.3l.72 116.04 116.05.72 115.8.48v230.64l-115.8.48-116.05.72-.72 115.8-.48 116.04H384.89l-.48-116.04-.72-115.8-115.8-.72-116.04-.48V384.54l116.04-.48 115.8-.72.72-116.04.48-115.8h230.64l.49 115.8z" fill="currentColor"/></svg>