<svg xmlns="http://www.w3.org/2000/svg" viewBox="0 0 1000 1000" xml:space="preserve"><g fill="currentColor"><path d="M489.09 11.78C479.52 15.8 33.54 269.03 29.33 272.86c-13.59 12.25-10.91 31.01 5.74 39.62 7.27 3.64 15.69 3.64 463.78 3.64 415.73 0 457.27-.19 464.35-3.06 17.8-7.08 21.63-27.56 7.47-40.2-3.83-3.45-82.88-48.43-428.37-243.85-32.54-18.38-42.87-21.83-53.21-17.23zM112.98 352.48c-4.79 4.98-5.55 6.89-4.59 12.06 1.53 8.23 7.46 12.82 16.65 12.82h7.46v367.5h-6.89c-9.95 0-18.95 9.19-17.23 17.8 2.49 13.21-.57 12.82 97.23 12.82h87.85l4.59-4.79c10.53-10.53 1.91-25.84-14.36-25.84h-5.74v-367.5h7.66c8.8 0 17.23-6.51 17.23-13.21 0-6.32-4.02-13.02-9-15.31-3.06-1.53-31.39-2.11-89.77-2.11H118.7l-5.72 5.76zM410.8 349.04c-4.59 2.1-8.42 9.19-8.42 15.12 0 6.7 8.42 13.21 17.23 13.21h7.66v367.49h-5.74c-16.27 0-24.88 15.31-14.36 25.84l4.59 4.79h176.48l4.59-4.79c10.53-10.53 1.91-25.84-14.36-25.84h-5.74v-367.5h7.66c8.8 0 17.23-6.51 17.23-13.21 0-6.32-4.02-13.02-9-15.31-6.12-2.87-172.07-2.68-177.82.2zM705.76 349.04c-14.93 8.61-9 28.33 8.61 28.33h7.66v367.49h-5.74c-16.27 0-24.88 15.31-14.36 25.84l4.59 4.79h87.85c97.81 0 94.75.38 97.23-12.82 1.72-8.61-7.27-17.8-17.23-17.8h-6.87v-367.5h7.47c9.19 0 15.12-4.59 16.65-12.82.96-5.17.19-7.08-4.59-12.06l-5.74-5.74h-85.94c-60.88.18-86.91.75-89.59 2.29zM66.27 808.41c-6.89 3.25-8.42 9.95-8.42 38.09 0 25.84.19 26.99 4.79 31.39l4.59 4.79h432.39c422.82 0 432.58 0 436.98-3.64 4.4-3.44 4.59-4.98 5.17-30.82.77-29.67-.76-36.37-8.42-40-6.51-2.87-861.14-2.87-867.08.19zM18.42 915.6c-6.89 3.25-8.42 9.95-8.42 35.98 0 26.61 1.53 32.73 9 36.18 6.51 3.06 955.5 3.06 962.01 0 7.46-3.45 9-9.57 9-36.18s-1.53-32.73-9-36.18c-6.32-2.87-956.65-2.67-962.59.2z"/></g></svg>