<svg xmlns="http://www.w3.org/2000/svg" viewBox="0 0 1000 1000" xml:space="preserve"><g fill="currentColor"><path d="M916 232.5c-80.3-80.4-208.4-80.4-288.8 0l-142 144.3v85.7l38 40.3 199.8-201c11.5-11.5 29.6-11.5 41.1 0 11.4 11.5 11.1 30.1-.3 41.6l-201.1 201 137.6 137.7-209.1 209.1c-9.6 9.6-20.4 17.2-31.6 23.8-10.2 23.5-23.9 45-40.3 64.2 34.7-8.8 67.6-26.5 94.8-53.7L916 523.6c80.4-80.4 80.4-210.7 0-291.1z"/><path d="M443.9 215.8C443.9 102.1 347.5 10 233.8 10 120.1 10 23.7 102.1 23.7 215.8v568.4c0 113.7 96.4 205.8 210.1 205.8 113.7 0 210.1-92.1 210.1-205.8V215.8zm-42.5 302.4H205.9v285.6c0 16.2-12.3 29.4-28.5 29.4s-28.5-13.2-28.5-29.4V518.2H65.1V223.8c0-89.5 79.5-162.1 169-162.1s167.4 72.6 167.4 162.1v294.4z"/></g></svg>