<svg xmlns="http://www.w3.org/2000/svg" viewBox="0 0 1000 1000" xml:space="preserve"><g fill="currentColor"><path d="M444.82 29.91c-17.69 9.51-16.8 36.26 1.55 47.09 8.18 4.86 12.16 11.94 12.16 22.11 0 18.79-15.25 55.27-40.68 95.95-17.91 29.4-32.06 57.26-39.13 77.82-7.29 21.44-7.52 56.82-.66 72.07 6.85 14.59 18.57 26.75 32.72 33.6 22.99 11.27 40.68 10.17 50.18-3.32 5.31-7.29 5.08-17.24-1.1-43.77-5.75-24.1-6.63-51.73-2.65-75.17 3.09-18.35 5.75-25.42 21.22-55.93 22.99-45.1 31.17-69.2 32.72-95.73 1.77-33.38-7.74-55.27-31.39-71.19-11.95-7.95-24.55-9.28-34.94-3.53zM588.96 153.93c-6.63 2.43-15.48 12.6-16.8 19.23-1.55 8.84 2.21 18.57 10.17 25.87 5.75 5.31 6.19 6.63 4.42 14.37-3.1 13.49-7.52 22.99-24.32 50.85-8.4 14.15-17.47 31.39-20.12 38.25-11.72 31.61-9.07 56.6 8.4 74.06 13.71 13.93 37.14 18.79 49.3 10.17 8.4-5.97 12.16-17.46 9.06-27.19-1.33-3.76-3.32-14.15-4.64-22.77-3.54-22.99-.22-39.35 13.04-65 14.81-28.74 20.12-45.32 20.12-63.45 0-19.23-2.66-28.52-11.27-38.91-10.83-13.04-26.3-19.46-37.36-15.48zM170.03 460.56c-9.29 3.98-18.35 15.25-20.12 24.98-.88 4.2-.88 19.01 0 32.5 7.3 115.84 46.87 216.43 115.62 294.25 9.73 11.05 21.44 22.77 25.86 26.31 4.64 3.32 7.96 6.63 7.52 6.85-.44.44-22.99 1.99-50.4 3.32-138.39 6.63-199.63 14.81-222.4 29.4-14.15 9.07-20.12 30.29-13.26 46.87 11.27 26.97 63.66 36.26 254.45 45.76 75.39 3.76 391.08 3.76 465.36 0 219.97-11.05 257.99-20.34 257.33-63.01-.67-40.46-37.81-49.08-260.21-60.35l-28.29-1.33 21.88-22.55c29.18-30.07 49.08-57.04 70.97-97.05l9.5-17.25 7.52 6.85c9.95 8.62 22.11 14.81 37.8 18.79 55.05 14.37 111.2-23.21 120.04-80.69 6.19-41.56-15.92-83.12-54.16-101.92-14.59-7.07-17.03-7.51-40.9-7.96l-25.2-.44.89-19.45c2.21-41.78.22-50.63-13.93-61.24l-6.19-4.64-326.53-.44c-268.16-.43-327.63.01-333.15 2.44zm611.27 73.62c0 13.48-6.19 48.41-13.26 74.94-17.25 65.22-46.65 119.38-88.44 163.16-42 43.99-85.78 69.2-139.28 80.03-24.98 5.09-70.97 3.32-96.17-3.54-100.14-27.19-181.94-121.15-212.89-244.51-5.75-23.21-7.96-34.71-12.6-70.08l-1.11-8.18H781.3v8.18zm116.06 54.61c19.23 8.84 31.84 28.52 32.06 49.74 0 18.35-4.2 28.74-16.58 41.56-19.01 19.45-43.77 23.21-67.87 10.17-5.97-3.32-13.93-9.73-17.46-14.15l-6.63-8.4 7.74-24.98c4.2-13.71 8.84-31.17 10.17-38.69 2.43-12.6 3.32-13.93 10.83-17.02 12.59-5.31 34.7-4.42 47.74 1.77z"/></g></svg>