<svg xmlns="http://www.w3.org/2000/svg" viewBox="0 0 1000 1000" xml:space="preserve"><g fill="currentColor"><path d="M525.11 13.67C463.05 26.9 402.26 89.46 384.97 157.88c-2.29 9.67-4.07 12.21-9.66 13.74-13.23 3.05-31.54 14.24-43.24 25.69-31.03 31.03-41.46 88-24.67 134.29 20.09 55.45 78.85 91.82 171.43 105.55l20.86 3.05V540.41l-34.85 1.78c-43.75 2.03-96.14 7.88-129.2 14.5-13.99 2.54-25.69 4.83-25.94 4.83-.51 0-.76-13.99-.76-31.28v-31.29l16.02-3.3c17.8-3.56 46.29-15.01 61.55-24.42 9.92-6.1 10.17-6.36 3.81-8.14-3.56-.76-17.29-7.12-30.52-13.73-72.24-36.12-110.9-99.96-106.07-175.5 3.82-59.77 29-104.02 75.54-132.26 16.79-10.17 16.79-10.43-2.54-20.09-61.8-31.28-126.41-19.84-183.38 32.55-52.4 48.33-88.77 126.16-88.77 189.74.25 57.99 30.78 105.55 85.71 133.27 15.51 7.63 34.34 14.75 46.54 17.55l20.35 4.58v92.07l-11.96 4.58c-19.84 7.38-61.29 29-80.63 41.46-24.42 16.03-55.19 46.04-67.4 65.37-16.53 25.94-21.36 43.75-20.09 73.76.76 23.15 1.78 27.21 10.17 44.51 17.29 35.61 49.34 67.4 95.89 94.87 18.82 11.19 56.21 28.74 70.96 33.57 5.85 1.78 5.85 1.53 2.29-5.59-2.04-3.81-6.87-16.79-10.68-28.74-9.41-29.25-10.17-67.65-1.78-89.27 13.23-33.57 39.42-58.25 85.71-80.88 47.82-23.66 106.82-40.19 206.02-58.75 156.67-28.99 186.94-38.4 197.88-61.8 5.59-11.7 5.34-18.31-1.02-31.28-6.11-12.97-16.53-21.37-41.71-33.32l-19.08-8.9V440.2l22.38-3.31c81.14-11.96 141.67-46.04 164.56-92.58 23.91-48.32 15.51-112.17-18.82-146.5-11.45-11.45-39.68-27.98-47.56-27.98-1.53 0-3.56-3.31-4.32-7.38-3.31-16.02-17.8-49.09-29.51-66.89-13.22-20.35-35.86-44-52.9-55.7C617.69 13.67 569.62 4 525.11 13.67zM787.85 594.07c12.21 13.48 15.01 35.86 6.61 53.16-12.46 25.94-43.24 41.97-145.99 75.79-87.49 29-119.03 43.49-142.68 65.37-19.59 18.31-28.49 35.36-30.53 58.25-4.83 49.59 31.54 93.6 104.03 126.66 43.24 19.84 41.2 19.58 84.44 11.7 212.37-38.66 337.51-140.9 303.94-248.24-16.79-53.92-70.7-101.23-157.18-138.11-23.91-10.17-28.49-11.19-22.64-4.58z"/></g></svg>