<svg xmlns="http://www.w3.org/2000/svg" viewBox="0 0 1000 1000" xml:space="preserve"><path d="M448.67 9.32C334.93 26.31 251.42 64.03 170.8 135.44 8.69 278.55-36.81 522.44 61.67 719.1c67.95 136.2 199.26 234.67 352.44 264.91 48.95 9.5 129 9.79 176.22.29 175.07-35.13 317.89-158.37 374.62-323.65C985.1 602.2 990 571.1 990 499.98c0-54.13-.86-66.23-6.91-95.02-36.57-176.8-158.66-315.3-329.12-372.89C603 14.79 573.92 10.19 512.01 9.03c-29.94-.57-58.45-.29-63.34.29zm137.92 31.96 25.34 5.18 15.84 27.35c8.64 14.97 23.61 41.18 33.11 58.17l17.28 30.81-41.75 75.73-41.75 75.73H411.53l-14.11-24.48c-7.78-13.53-27.07-47.8-42.9-76.02-27.64-49.53-28.79-52.12-24.76-59.03 2.3-4.03 17.56-30.23 33.69-58.17l29.37-50.68 29.37-4.89c16.13-2.59 33.4-5.18 38.01-5.76 19.28-2.86 101.91 1.46 126.39 6.06zM352.2 60.86c0 .86-48.09 84.37-50.1 86.67 0 .29-24.76 1.44-55 2.3l-54.71 2.02 11.52-10.37c14.97-13.82 58.17-42.61 80.34-53.85 36.28-18.42 67.95-31.09 67.95-26.77zm348.13 19.01c36.86 17.56 71.41 39.16 96.46 59.89l13.82 11.81H782.1c-15.84 0-40.6-.86-54.71-1.73l-26.2-2.01-23.9-41.75c-13.25-23.04-24.76-42.9-25.34-44.34-1.72-4.62 10.08-.3 48.38 18.13zM310.16 188.71c4.03 7.49 23.04 41.46 42.33 75.44s35.13 62.77 35.13 64.5c0 1.44-19.58 36.86-43.77 78.03l-43.77 75.15-13.25 2.02c-7.2.86-47.8 1.73-90.41 1.73h-77.17l-12.09-21.02c-6.62-11.23-21.6-36.57-33.4-56.15l-21.31-35.42 4.61-16.13c15.26-52.4 52.41-118.06 94.44-166.43l10.08-11.52 61.33-1.44c33.98-.86 65.94-2.02 70.83-2.3 8.65-.57 10.09.58 16.42 13.54zm541.91 4.61c23.9 27.35 47.8 63.35 64.79 97.9 18.72 38.3 32.54 77.17 30.52 85.23-.86 3.17-15.55 29.37-32.54 58.74l-31.1 53.27h-176.8l-44.92-77.17c-24.76-42.62-44.92-78.03-44.92-78.9 0-.86 14.97-28.22 33.4-60.18 18.43-32.25 37.43-66.8 42.62-76.88l8.93-18.14 68.53.86 68.82.86 12.67 14.41zM636.41 420.79c24.19 41.18 43.48 76.88 42.9 79.47-.57 2.3-20.73 38.29-44.63 79.76l-44.06 75.44-89.55-.58-89.84-.86-45.21-77.74c-40.6-69.4-44.92-78.32-41.46-83.5 2.02-3.17 22.17-37.72 44.92-77.17l41.46-71.12 90.99.58 90.7.86 43.78 74.86zM70.88 458.22c28.22 46.65 28.8 35.13-4.6 91.86-19 32.54-20.44 33.98-23.32 27.36-5.47-12.96-3.17-166.14 2.59-160.38.57.28 11.8 18.99 25.33 41.16zm892.92 34.56c.29 50.39-2.59 90.7-6.33 90.7-1.15-.29-12.96-18.43-25.92-40.89l-24.19-40.89 6.62-11.52c3.46-6.62 14.97-26.2 25.34-43.48l18.72-31.67 2.59 12.96c1.44 7.2 2.88 36.28 3.17 64.79zm-621.39 96.46 44.63 76.02-9.5 17.57c-4.89 9.5-24.19 44.34-42.9 77.74l-33.4 60.47-68.82-.86-68.82-.88-13.82-14.97c-34.84-38.01-72.56-103.37-89.84-155.2l-7.2-22.17 24.76-42.33c13.82-23.61 29.37-49.52 34.84-57.88l9.79-15.26 87.82.58 88.11.86 44.35 76.31zm552.28-56.73c6.05 9.79 20.73 34.55 32.82 55l21.6 37.15-5.18 16.12c-19 61.04-61.62 135.05-98.48 170.75l-10.94 10.65-65.94.58-65.94.29-12.09-21.02c-6.62-11.8-26.49-46.93-44.05-78.03l-32.25-56.44 22.75-38.59c12.38-21.02 32.54-55.57 44.63-76.59l22.46-38.01h179.39l11.22 18.14zM606.17 713.05c44.34 77.74 68.53 122.37 68.53 126.7 0 2.3-13.24 27.64-29.37 56.15-20.44 35.42-31.96 52.98-36.86 55.29-4.03 1.73-22.17 5.47-40.31 8.35-60.47 8.64-167.58 1.44-177.95-12.67-2.3-2.59-17.56-28.51-34.27-57.59-28.51-49.24-30.23-53.27-27.07-60.47 2.02-4.32 21.31-39.16 42.9-77.17l39.16-69.68 88.97.57 88.98.29 17.29 30.23zM321.39 882.08c10.65 18.72 22.46 39.45 26.49 46.07 4.32 6.91 6.91 12.38 6.05 12.38-.86 0-9.79-3.17-19.58-6.91-41.46-15.55-94.44-46.07-127.27-73.42l-13.82-11.8H302.1l19.29 33.68zm482.89-31.1c0 3.74-38.3 31.67-66.51 48.66C713 914.62 658 939.38 655.7 936.79c-.87-.86 9.21-20.16 22.46-43.19l23.9-42.04 48.95-.86c27.07-.58 49.81-1.44 51.25-1.73 1.15-.3 2.02.57 2.02 2.01z" fill="currentColor"/></svg>