<svg xmlns="http://www.w3.org/2000/svg" viewBox="0 0 362 67"><g fill="currentColor"><path d="M9.233 2.545V52H.49V2.545h8.742ZM18.322 52V14.91h8.741V52h-8.741Zm4.395-42.355c-1.385 0-2.576-.459-3.574-1.377-.998-.933-1.497-2.052-1.497-3.356 0-1.32.499-2.439 1.497-3.357.998-.933 2.19-1.4 3.574-1.4 1.4 0 2.592.467 3.574 1.4.998.918 1.497 2.037 1.497 3.357 0 1.304-.5 2.423-1.497 3.356-.982.918-2.174 1.377-3.574 1.377ZM52.283 66.682c-3.14 0-5.836-.427-8.09-1.28-2.253-.837-4.064-1.964-5.433-3.38-1.368-1.417-2.318-2.987-2.85-4.71l7.873-1.907c.354.724.87 1.44 1.545 2.149.677.724 1.586 1.32 2.73 1.787 1.158.483 2.615.724 4.37.724 2.48 0 4.532-.603 6.158-1.81 1.626-1.192 2.439-3.156 2.439-5.893v-7.027h-.435c-.45.902-1.11 1.827-1.98 2.777-.853.95-1.988 1.747-3.405 2.39-1.4.645-3.163.967-5.288.967-2.85 0-5.434-.668-7.752-2.005-2.302-1.352-4.137-3.364-5.505-6.036-1.353-2.689-2.029-6.053-2.029-10.094 0-4.073.676-7.51 2.029-10.311 1.368-2.817 3.211-4.95 5.53-6.4 2.318-1.464 4.901-2.197 7.75-2.197 2.174 0 3.961.37 5.362 1.11 1.416.725 2.543 1.603 3.38 2.633.837 1.014 1.473 1.972 1.908 2.874h.483v-6.134h8.62v37.695c0 3.171-.756 5.795-2.27 7.872-1.513 2.077-3.581 3.63-6.205 4.66-2.624 1.03-5.603 1.546-8.935 1.546Zm.072-22.071c1.852 0 3.43-.451 4.734-1.352 1.303-.902 2.294-2.198 2.97-3.888.676-1.69 1.014-3.719 1.014-6.086 0-2.334-.338-4.378-1.014-6.133-.66-1.755-1.642-3.115-2.946-4.081-1.288-.982-2.874-1.473-4.758-1.473-1.947 0-3.573.507-4.877 1.521-1.304 1.015-2.286 2.407-2.946 4.178-.66 1.755-.99 3.75-.99 5.988 0 2.27.33 4.259.99 5.965.676 1.69 1.666 3.01 2.97 3.96 1.32.934 2.938 1.4 4.853 1.4ZM89.426 52.749c-2.35 0-4.468-.419-6.351-1.256-1.868-.853-3.349-2.109-4.443-3.767-1.079-1.658-1.618-3.703-1.618-6.134 0-2.093.386-3.823 1.159-5.191a8.97 8.97 0 0 1 3.163-3.285c1.336-.82 2.842-1.44 4.516-1.859a36.723 36.723 0 0 1 5.24-.942c2.173-.225 3.936-.426 5.288-.603 1.353-.194 2.335-.483 2.946-.87.628-.402.942-1.022.942-1.86v-.144c0-1.82-.54-3.228-1.618-4.226-1.079-.998-2.632-1.497-4.66-1.497-2.141 0-3.84.467-5.096 1.4-1.24.934-2.076 2.037-2.51 3.309l-8.163-1.16c.644-2.253 1.707-4.137 3.188-5.65 1.48-1.53 3.292-2.672 5.433-3.429 2.141-.773 4.508-1.159 7.1-1.159 1.786 0 3.565.21 5.336.628a15.014 15.014 0 0 1 4.854 2.077c1.465.95 2.64 2.245 3.525 3.887.902 1.642 1.353 3.695 1.353 6.158V52h-8.404v-5.095h-.29c-.53 1.03-1.28 1.996-2.245 2.898-.95.885-2.15 1.601-3.598 2.149-1.433.53-3.115.797-5.047.797Zm2.27-6.424c1.754 0 3.276-.346 4.564-1.038 1.287-.708 2.277-1.642 2.97-2.801a7.135 7.135 0 0 0 1.062-3.791v-4.371c-.273.225-.74.434-1.4.628-.644.193-1.369.362-2.174.507-.805.145-1.602.273-2.39.386-.79.113-1.473.21-2.053.29-1.304.177-2.471.467-3.501.87-1.03.402-1.844.965-2.44 1.69-.595.708-.893 1.626-.893 2.752 0 1.61.588 2.826 1.763 3.647 1.175.82 2.672 1.231 4.492 1.231ZM128.573 52.749c-2.351 0-4.468-.419-6.351-1.256-1.868-.853-3.349-2.109-4.443-3.767-1.079-1.658-1.618-3.703-1.618-6.134 0-2.093.386-3.823 1.159-5.191a8.965 8.965 0 0 1 3.163-3.285c1.336-.82 2.841-1.44 4.516-1.859a36.711 36.711 0 0 1 5.24-.942 206.41 206.41 0 0 0 5.288-.603c1.352-.194 2.334-.483 2.946-.87.628-.402.942-1.022.942-1.86v-.144c0-1.82-.539-3.228-1.618-4.226-1.079-.998-2.632-1.497-4.66-1.497-2.142 0-3.84.467-5.096 1.4-1.239.934-2.076 2.037-2.511 3.309l-8.162-1.16c.644-2.253 1.706-4.137 3.188-5.65 1.481-1.53 3.292-2.672 5.433-3.429 2.141-.773 4.507-1.159 7.099-1.159 1.787 0 3.566.21 5.337.628a15.014 15.014 0 0 1 4.854 2.077c1.465.95 2.64 2.245 3.525 3.887.902 1.642 1.352 3.695 1.352 6.158V52h-8.403v-5.095h-.29c-.531 1.03-1.28 1.996-2.246 2.898-.949.885-2.149 1.601-3.598 2.149-1.432.53-3.115.797-5.046.797Zm2.269-6.424c1.755 0 3.277-.346 4.564-1.038 1.288-.708 2.278-1.642 2.971-2.801a7.138 7.138 0 0 0 1.062-3.791v-4.371c-.274.225-.74.434-1.401.628a19.76 19.76 0 0 1-2.173.507c-.805.145-1.602.273-2.39.386-.789.113-1.473.21-2.053.29-1.304.177-2.471.467-3.501.87-1.031.402-1.844.965-2.439 1.69-.596.708-.894 1.626-.894 2.752 0 1.61.588 2.826 1.763 3.647 1.175.82 2.672 1.231 4.491 1.231ZM162.431 52.531c-1.465 0-2.721-.515-3.767-1.545-1.046-1.03-1.561-2.286-1.545-3.767-.016-1.45.499-2.689 1.545-3.719 1.046-1.03 2.302-1.545 3.767-1.545 1.417 0 2.648.515 3.695 1.545 1.062 1.03 1.602 2.27 1.618 3.719a5.15 5.15 0 0 1-.773 2.68 5.55 5.55 0 0 1-1.932 1.932c-.789.467-1.658.7-2.608.7ZM176.869 52V14.91h8.741V52h-8.741Zm4.395-42.355c-1.385 0-2.576-.459-3.574-1.377-.998-.933-1.497-2.052-1.497-3.356 0-1.32.499-2.439 1.497-3.357.998-.933 2.189-1.4 3.574-1.4 1.4 0 2.592.467 3.574 1.4.998.918 1.497 2.037 1.497 3.357 0 1.304-.499 2.423-1.497 3.356-.982.918-2.174 1.377-3.574 1.377ZM203.441 30.267V52h-8.742V14.91h8.355v6.302h.435c.853-2.077 2.214-3.727 4.081-4.95 1.884-1.224 4.21-1.836 6.979-1.836 2.559 0 4.789.547 6.689 1.642 1.915 1.095 3.396 2.68 4.443 4.757 1.062 2.077 1.586 4.596 1.569 7.559V52h-8.741V29.736c0-2.48-.644-4.42-1.932-5.82-1.272-1.4-3.034-2.1-5.288-2.1-1.53 0-2.89.337-4.081 1.014-1.175.66-2.101 1.617-2.777 2.873-.66 1.256-.99 2.777-.99 4.564ZM254.758 14.91v6.76h-21.322v-6.76h21.322ZM238.7 6.022h8.741v34.82c0 1.176.177 2.077.532 2.705.37.612.853 1.03 1.448 1.256a5.562 5.562 0 0 0 1.981.338c.547 0 1.046-.04 1.497-.12.467-.081.821-.154 1.062-.218l1.473 6.834c-.467.16-1.135.338-2.004.531-.853.193-1.9.306-3.139.338-2.19.065-4.162-.265-5.916-.99-1.755-.74-3.148-1.884-4.178-3.429-1.014-1.545-1.513-3.477-1.497-5.795V6.023ZM278.191 52.724c-3.719 0-6.931-.772-9.635-2.318-2.689-1.561-4.757-3.767-6.206-6.616-1.449-2.866-2.173-6.238-2.173-10.118 0-3.815.724-7.164 2.173-10.046 1.465-2.897 3.509-5.151 6.133-6.761 2.624-1.626 5.707-2.439 9.249-2.439 2.286 0 4.443.37 6.472 1.11a14.633 14.633 0 0 1 5.409 3.382c1.577 1.529 2.817 3.477 3.718 5.843.902 2.35 1.353 5.152 1.353 8.404v2.68h-30.402v-5.892h22.022c-.016-1.674-.378-3.163-1.086-4.467a7.911 7.911 0 0 0-2.97-3.115c-1.256-.757-2.721-1.135-4.395-1.135-1.787 0-3.357.434-4.709 1.304a8.981 8.981 0 0 0-3.163 3.38c-.741 1.385-1.119 2.906-1.135 4.564v5.144c0 2.157.394 4.008 1.183 5.554.789 1.53 1.891 2.704 3.308 3.525 1.417.805 3.075 1.208 4.975 1.208 1.271 0 2.422-.177 3.453-.532a7.668 7.668 0 0 0 2.68-1.617c.757-.709 1.328-1.586 1.715-2.633l8.162.918c-.516 2.157-1.498 4.04-2.947 5.65-1.432 1.594-3.268 2.834-5.505 3.72-2.238.869-4.798 1.303-7.679 1.303ZM302.179 52V14.91h8.476v6.18h.386c.676-2.14 1.835-3.79 3.477-4.95 1.659-1.175 3.55-1.762 5.675-1.762.483 0 1.022.024 1.618.072a10.87 10.87 0 0 1 1.521.17v8.04c-.37-.128-.957-.241-1.762-.338a16.226 16.226 0 0 0-2.294-.169c-1.594 0-3.027.347-4.299 1.039a7.607 7.607 0 0 0-2.97 2.825c-.724 1.207-1.087 2.6-1.087 4.178V52h-8.741ZM337.981 30.267V52h-8.741V14.91h8.355v6.302h.435c.853-2.077 2.213-3.727 4.081-4.95 1.883-1.224 4.209-1.836 6.978-1.836 2.56 0 4.79.547 6.689 1.642 1.916 1.095 3.397 2.68 4.443 4.757 1.063 2.077 1.586 4.596 1.57 7.559V52h-8.741V29.736c0-2.48-.644-4.42-1.932-5.82-1.272-1.4-3.035-2.1-5.289-2.1-1.529 0-2.889.337-4.081 1.014-1.175.66-2.1 1.617-2.777 2.873-.66 1.256-.99 2.777-.99 4.564Z"/></g></svg>