<svg xmlns="http://www.w3.org/2000/svg"><style>:root svg:not(:target){display:none}</style><svg viewBox="0 0 1000 1000" id="icon-all-objects"><path d="m31.2 298.8 454.4 247.6c4.6 2.5 9.6 3.7 14.6 3.7s10-1.2 14.5-3.7l459.1-247.6c10-5.4 16.2-15.9 16.1-27.3-.1-11.4-6.6-21.8-16.7-27L518.9 13.7c-8.7-4.4-18.9-4.4-27.6-.1l-459.2 231C22 249.7 15.4 260 15.3 271.4c-.2 11.4 5.9 22 15.9 27.4zM504.9 75.3l388.4 197.4-393 212L111.9 273l393-197.7zM968 469.7l-90.8-46.1-65.6 35.4 76.5 38.9-393 212L106.6 498l81.6-41-65.4-35.7-95.9 48.2C16.8 474.6 10.2 485 10 496.4c-.2 11.4 6 22 16 27.4l454.4 247.6c4.6 2.5 9.6 3.7 14.6 3.7s10-1.2 14.5-3.7l459.2-247.6c10-5.4 16.2-15.9 16.1-27.3-.2-11.3-6.7-21.7-16.8-26.8zm0 214.3-86-42.3-65.6 35.4 71.7 35.1-393 212-388.5-211.8 75.9-34.3-65.4-35.7L26.9 684c-10.1 5.1-16.7 15.5-16.9 26.9-.2 11.4 6 22 16 27.4l454.4 247.6c4.6 2.5 9.6 3.7 14.6 3.7s10-1.2 14.5-3.7l459.2-247.6c10-5.4 16.2-15.9 16.1-27.3-.2-11.4-6.7-21.8-16.8-27z" fill="currentColor"/></svg><svg viewBox="0 0 1000 1000" id="icon-caffee"><path d="M444.82 29.91c-17.69 9.51-16.8 36.26 1.55 47.09 8.18 4.86 12.16 11.94 12.16 22.11 0 18.79-15.25 55.27-40.68 95.95-17.91 29.4-32.06 57.26-39.13 77.82-7.29 21.44-7.52 56.82-.66 72.07 6.85 14.59 18.57 26.75 32.72 33.6 22.99 11.27 40.68 10.17 50.18-3.32 5.31-7.29 5.08-17.24-1.1-43.77-5.75-24.1-6.63-51.73-2.65-75.17 3.09-18.35 5.75-25.42 21.22-55.93 22.99-45.1 31.17-69.2 32.72-95.73 1.77-33.38-7.74-55.27-31.39-71.19-11.95-7.95-24.55-9.28-34.94-3.53zm144.14 124.02c-6.63 2.43-15.48 12.6-16.8 19.23-1.55 8.84 2.21 18.57 10.17 25.87 5.75 5.31 6.19 6.63 4.42 14.37-3.1 13.49-7.52 22.99-24.32 50.85-8.4 14.15-17.47 31.39-20.12 38.25-11.72 31.61-9.07 56.6 8.4 74.06 13.71 13.93 37.14 18.79 49.3 10.17 8.4-5.97 12.16-17.46 9.06-27.19-1.33-3.76-3.32-14.15-4.64-22.77-3.54-22.99-.22-39.35 13.04-65 14.81-28.74 20.12-45.32 20.12-63.45 0-19.23-2.66-28.52-11.27-38.91-10.83-13.04-26.3-19.46-37.36-15.48zM170.03 460.56c-9.29 3.98-18.35 15.25-20.12 24.98-.88 4.2-.88 19.01 0 32.5 7.3 115.84 46.87 216.43 115.62 294.25 9.73 11.05 21.44 22.77 25.86 26.31 4.64 3.32 7.96 6.63 7.52 6.85-.44.44-22.99 1.99-50.4 3.32-138.39 6.63-199.63 14.81-222.4 29.4-14.15 9.07-20.12 30.29-13.26 46.87 11.27 26.97 63.66 36.26 254.45 45.76 75.39 3.76 391.08 3.76 465.36 0 219.97-11.05 257.99-20.34 257.33-63.01-.67-40.46-37.81-49.08-260.21-60.35l-28.29-1.33 21.88-22.55c29.18-30.07 49.08-57.04 70.97-97.05l9.5-17.25 7.52 6.85c9.95 8.62 22.11 14.81 37.8 18.79 55.05 14.37 111.2-23.21 120.04-80.69 6.19-41.56-15.92-83.12-54.16-101.92-14.59-7.07-17.03-7.51-40.9-7.96l-25.2-.44.89-19.45c2.21-41.78.22-50.63-13.93-61.24l-6.19-4.64-326.53-.44c-268.16-.43-327.63.01-333.15 2.44zm611.27 73.62c0 13.48-6.19 48.41-13.26 74.94-17.25 65.22-46.65 119.38-88.44 163.16-42 43.99-85.78 69.2-139.28 80.03-24.98 5.09-70.97 3.32-96.17-3.54-100.14-27.19-181.94-121.15-212.89-244.51-5.75-23.21-7.96-34.71-12.6-70.08l-1.11-8.18H781.3v8.18zm116.06 54.61c19.23 8.84 31.84 28.52 32.06 49.74 0 18.35-4.2 28.74-16.58 41.56-19.01 19.45-43.77 23.21-67.87 10.17-5.97-3.32-13.93-9.73-17.46-14.15l-6.63-8.4 7.74-24.98c4.2-13.71 8.84-31.17 10.17-38.69 2.43-12.6 3.32-13.93 10.83-17.02 12.59-5.31 34.7-4.42 47.74 1.77z" fill="currentColor"/></svg><svg fill="none" id="icon-close" viewBox="0 0 20 20"><path d="M.293 18.291a1 1 0 1 0 1.414 1.414L10 11.413l8.292 8.292a1 1 0 1 0 1.414-1.414l-8.292-8.292 8.292-8.292A1 1 0 1 0 18.291.293L9.999 8.585 1.707.293A1 1 0 1 0 .293 1.707L8.585 10 .293 18.291z" fill="currentColor"/></svg><svg viewBox="0 0 1000 1000" id="icon-grocery"><path d="M304 794c-54.1 0-97.5 43.9-97.5 98s43.4 98 97.5 98 98-43.9 98-98-43.9-98-98-98zM10 10v98h98l176.2 371.7-66.2 120c-7.6 14.2-12 30.1-12 47.3 0 54.1 43.9 98 98 98h588v-98H324.8c-6.9 0-12.3-5.4-12.3-12.3 0-2.2.5-4.2 1.5-5.9l43.9-79.9H723c36.8 0 68.8-20.3 85.7-50.5l175.2-318c3.9-6.9 6.1-14.9 6.1-23.5 0-27.2-22.1-49-49-49H216.5L170 10H10zm784 784c-54.1 0-97.5 43.9-97.5 98s43.4 98 97.5 98 98-43.9 98-98-43.9-98-98-98z" fill="currentColor"/></svg><svg viewBox="0 0 1000 1000" id="icon-hospital"><path d="M111.24 12.39c-47.57 7.93-90.82 51.9-98.5 100.67-3.6 21.14-3.6 751.76-.24 773.62 7.68 49.25 51.65 93.22 100.9 100.91 21.86 3.37 752.48 3.37 773.62-.24 50.45-8.17 92.98-51.18 100.91-101.87 1.68-11.53 2.4-134.3 1.92-396.42-.72-378.88-.72-379.6-5.77-393.3-16.34-44.45-53.82-76.88-97.06-83.61-19.7-3.13-757.28-2.89-775.78.24zM616.02 267.3l.72 116.04 116.05.72 115.8.48v230.64l-115.8.48-116.05.72-.72 115.8-.48 116.04H384.89l-.48-116.04-.72-115.8-115.8-.72-116.04-.48V384.54l116.04-.48 115.8-.72.72-116.04.48-115.8h230.64l.49 115.8z" fill="currentColor"/></svg><svg viewBox="0 0 1000 1000" id="icon-library"><path d="M489.09 11.78C479.52 15.8 33.54 269.03 29.33 272.86c-13.59 12.25-10.91 31.01 5.74 39.62 7.27 3.64 15.69 3.64 463.78 3.64 415.73 0 457.27-.19 464.35-3.06 17.8-7.08 21.63-27.56 7.47-40.2-3.83-3.45-82.88-48.43-428.37-243.85-32.54-18.38-42.87-21.83-53.21-17.23zm-376.11 340.7c-4.79 4.98-5.55 6.89-4.59 12.06 1.53 8.23 7.46 12.82 16.65 12.82h7.46v367.5h-6.89c-9.95 0-18.95 9.19-17.23 17.8 2.49 13.21-.57 12.82 97.23 12.82h87.85l4.59-4.79c10.53-10.53 1.91-25.84-14.36-25.84h-5.74v-367.5h7.66c8.8 0 17.23-6.51 17.23-13.21 0-6.32-4.02-13.02-9-15.31-3.06-1.53-31.39-2.11-89.77-2.11H118.7l-5.72 5.76zm297.82-3.44c-4.59 2.1-8.42 9.19-8.42 15.12 0 6.7 8.42 13.21 17.23 13.21h7.66v367.49h-5.74c-16.27 0-24.88 15.31-14.36 25.84l4.59 4.79h176.48l4.59-4.79c10.53-10.53 1.91-25.84-14.36-25.84h-5.74v-367.5h7.66c8.8 0 17.23-6.51 17.23-13.21 0-6.32-4.02-13.02-9-15.31-6.12-2.87-172.07-2.68-177.82.2zm294.96 0c-14.93 8.61-9 28.33 8.61 28.33h7.66v367.49h-5.74c-16.27 0-24.88 15.31-14.36 25.84l4.59 4.79h87.85c97.81 0 94.75.38 97.23-12.82 1.72-8.61-7.27-17.8-17.23-17.8h-6.87v-367.5h7.47c9.19 0 15.12-4.59 16.65-12.82.96-5.17.19-7.08-4.59-12.06l-5.74-5.74h-85.94c-60.88.18-86.91.75-89.59 2.29zM66.27 808.41c-6.89 3.25-8.42 9.95-8.42 38.09 0 25.84.19 26.99 4.79 31.39l4.59 4.79h432.39c422.82 0 432.58 0 436.98-3.64 4.4-3.44 4.59-4.98 5.17-30.82.77-29.67-.76-36.37-8.42-40-6.51-2.87-861.14-2.87-867.08.19zM18.42 915.6c-6.89 3.25-8.42 9.95-8.42 35.98 0 26.61 1.53 32.73 9 36.18 6.51 3.06 955.5 3.06 962.01 0 7.46-3.45 9-9.57 9-36.18s-1.53-32.73-9-36.18c-6.32-2.87-956.65-2.67-962.59.2z" fill="currentColor"/></svg><svg viewBox="0 0 1000 1000" id="icon-park"><path d="M525.11 13.67C463.05 26.9 402.26 89.46 384.97 157.88c-2.29 9.67-4.07 12.21-9.66 13.74-13.23 3.05-31.54 14.24-43.24 25.69-31.03 31.03-41.46 88-24.67 134.29 20.09 55.45 78.85 91.82 171.43 105.55l20.86 3.05v100.21l-34.85 1.78c-43.75 2.03-96.14 7.88-129.2 14.5-13.99 2.54-25.69 4.83-25.94 4.83-.51 0-.76-13.99-.76-31.28v-31.29l16.02-3.3c17.8-3.56 46.29-15.01 61.55-24.42 9.92-6.1 10.17-6.36 3.81-8.14-3.56-.76-17.29-7.12-30.52-13.73-72.24-36.12-110.9-99.96-106.07-175.5 3.82-59.77 29-104.02 75.54-132.26 16.79-10.17 16.79-10.43-2.54-20.09-61.8-31.28-126.41-19.84-183.38 32.55-52.4 48.33-88.77 126.16-88.77 189.74.25 57.99 30.78 105.55 85.71 133.27 15.51 7.63 34.34 14.75 46.54 17.55l20.35 4.58v92.07l-11.96 4.58c-19.84 7.38-61.29 29-80.63 41.46-24.42 16.03-55.19 46.04-67.4 65.37-16.53 25.94-21.36 43.75-20.09 73.76.76 23.15 1.78 27.21 10.17 44.51 17.29 35.61 49.34 67.4 95.89 94.87 18.82 11.19 56.21 28.74 70.96 33.57 5.85 1.78 5.85 1.53 2.29-5.59-2.04-3.81-6.87-16.79-10.68-28.74-9.41-29.25-10.17-67.65-1.78-89.27 13.23-33.57 39.42-58.25 85.71-80.88 47.82-23.66 106.82-40.19 206.02-58.75 156.67-28.99 186.94-38.4 197.88-61.8 5.59-11.7 5.34-18.31-1.02-31.28-6.11-12.97-16.53-21.37-41.71-33.32l-19.08-8.9V440.2l22.38-3.31c81.14-11.96 141.67-46.04 164.56-92.58 23.91-48.32 15.51-112.17-18.82-146.5-11.45-11.45-39.68-27.98-47.56-27.98-1.53 0-3.56-3.31-4.32-7.38-3.31-16.02-17.8-49.09-29.51-66.89-13.22-20.35-35.86-44-52.9-55.7C617.69 13.67 569.62 4 525.11 13.67zm262.74 580.4c12.21 13.48 15.01 35.86 6.61 53.16-12.46 25.94-43.24 41.97-145.99 75.79-87.49 29-119.03 43.49-142.68 65.37-19.59 18.31-28.49 35.36-30.53 58.25-4.83 49.59 31.54 93.6 104.03 126.66 43.24 19.84 41.2 19.58 84.44 11.7 212.37-38.66 337.51-140.9 303.94-248.24-16.79-53.92-70.7-101.23-157.18-138.11-23.91-10.17-28.49-11.19-22.64-4.58z" fill="currentColor"/></svg><svg viewBox="0 0 1000 1000" id="icon-pharmacy"><g fill="currentColor"><path d="M916 232.5c-80.3-80.4-208.4-80.4-288.8 0l-142 144.3v85.7l38 40.3 199.8-201c11.5-11.5 29.6-11.5 41.1 0 11.4 11.5 11.1 30.1-.3 41.6l-201.1 201 137.6 137.7-209.1 209.1c-9.6 9.6-20.4 17.2-31.6 23.8-10.2 23.5-23.9 45-40.3 64.2 34.7-8.8 67.6-26.5 94.8-53.7L916 523.6c80.4-80.4 80.4-210.7 0-291.1z"/><path d="M443.9 215.8C443.9 102.1 347.5 10 233.8 10 120.1 10 23.7 102.1 23.7 215.8v568.4c0 113.7 96.4 205.8 210.1 205.8 113.7 0 210.1-92.1 210.1-205.8V215.8zm-42.5 302.4H205.9v285.6c0 16.2-12.3 29.4-28.5 29.4s-28.5-13.2-28.5-29.4V518.2H65.1V223.8c0-89.5 79.5-162.1 169-162.1s167.4 72.6 167.4 162.1v294.4z"/></g></svg><svg viewBox="0 0 1000 1000" id="icon-school"><g fill="currentColor"><path d="M987.2 381.3c6.5 12.7 1.4 28.3-11.3 34.8L514.8 651c-12.7 6.5-28.3 1.4-34.8-11.3-6.5-12.7-1.4-28.3 11.3-34.8l461-234.9c12.8-6.5 28.4-1.4 34.9 11.3z"/><path d="M12.8 381.3c-6.5 12.7-1.4 28.3 11.3 34.8l461 234.9c12.7 6.5 28.3 1.4 34.8-11.3 6.5-12.7 1.4-28.3-11.3-34.8L47.7 370c-12.8-6.5-28.4-1.4-34.9 11.3zm974.4 22.4c6.5-12.7 1.4-28.3-11.3-34.8L514.8 134c-12.7-6.5-28.3-1.4-34.8 11.3-6.5 12.7-1.4 28.3 11.3 34.8l461 234.9c12.8 6.5 28.4 1.4 34.9-11.3z"/><path d="M12.8 403.7c-6.5-12.7-1.4-28.3 11.3-34.8l461-234.9c12.7-6.5 28.3-1.4 34.8 11.3 6.5 12.7 1.4 28.3-11.3 34.8L47.7 414.9c-12.8 6.6-28.4 1.5-34.9-11.2zm720 103c-14.2 0-25.9 11.6-25.9 25.9v235.6c-8.2 4-17 7.4-25.5 11-55.8 24-116.9 38-181.4 38-64.6 0-125.6-14.1-181.4-38-8.5-3.7-17.2-6.9-25.5-10.9V532.5c0-14.3-11.6-25.9-25.9-25.9s-25.9 11.6-25.9 25.9v244.7c0 11.8 5.7 22.2 14.2 29.2 4.6 2.4 9.2 5 13.9 7.3 1.2.7 2.5 1.3 3.7 2 68.6 33.6 145.4 53 226.9 53s158.4-19.4 226.9-52.9c1.2-.6 2.5-1.2 3.7-1.9 4.7-2.3 9.3-4.9 14-7.4 8.5-7.1 14.1-17.4 14.1-29.3V532.5c0-14.2-11.7-25.8-25.9-25.8zm-595 137.2V444.6c0-14.3-11.6-25.9-25.9-25.9-14.3 0-25.9 11.5-25.9 25.9V644c-15.2 9-25.9 24.8-25.9 43.8 0 28.7 23.2 51.7 51.7 51.7s51.7-23.1 51.7-51.7c.2-19-10.5-34.9-25.7-43.9z"/></g></svg><svg viewBox="0 0 1000 1000" id="icon-stadium"><path d="M448.67 9.32C334.93 26.31 251.42 64.03 170.8 135.44 8.69 278.55-36.81 522.44 61.67 719.1c67.95 136.2 199.26 234.67 352.44 264.91 48.95 9.5 129 9.79 176.22.29 175.07-35.13 317.89-158.37 374.62-323.65C985.1 602.2 990 571.1 990 499.98c0-54.13-.86-66.23-6.91-95.02-36.57-176.8-158.66-315.3-329.12-372.89C603 14.79 573.92 10.19 512.01 9.03c-29.94-.57-58.45-.29-63.34.29zm137.92 31.96 25.34 5.18 15.84 27.35c8.64 14.97 23.61 41.18 33.11 58.17l17.28 30.81-41.75 75.73-41.75 75.73H411.53l-14.11-24.48c-7.78-13.53-27.07-47.8-42.9-76.02-27.64-49.53-28.79-52.12-24.76-59.03 2.3-4.03 17.56-30.23 33.69-58.17l29.37-50.68 29.37-4.89c16.13-2.59 33.4-5.18 38.01-5.76 19.28-2.86 101.91 1.46 126.39 6.06zM352.2 60.86c0 .86-48.09 84.37-50.1 86.67 0 .29-24.76 1.44-55 2.3l-54.71 2.02 11.52-10.37c14.97-13.82 58.17-42.61 80.34-53.85 36.28-18.42 67.95-31.09 67.95-26.77zm348.13 19.01c36.86 17.56 71.41 39.16 96.46 59.89l13.82 11.81H782.1c-15.84 0-40.6-.86-54.71-1.73l-26.2-2.01-23.9-41.75c-13.25-23.04-24.76-42.9-25.34-44.34-1.72-4.62 10.08-.3 48.38 18.13zM310.16 188.71c4.03 7.49 23.04 41.46 42.33 75.44s35.13 62.77 35.13 64.5c0 1.44-19.58 36.86-43.77 78.03l-43.77 75.15-13.25 2.02c-7.2.86-47.8 1.73-90.41 1.73h-77.17l-12.09-21.02c-6.62-11.23-21.6-36.57-33.4-56.15l-21.31-35.42 4.61-16.13c15.26-52.4 52.41-118.06 94.44-166.43l10.08-11.52 61.33-1.44c33.98-.86 65.94-2.02 70.83-2.3 8.65-.57 10.09.58 16.42 13.54zm541.91 4.61c23.9 27.35 47.8 63.35 64.79 97.9 18.72 38.3 32.54 77.17 30.52 85.23-.86 3.17-15.55 29.37-32.54 58.74l-31.1 53.27h-176.8l-44.92-77.17c-24.76-42.62-44.92-78.03-44.92-78.9 0-.86 14.97-28.22 33.4-60.18 18.43-32.25 37.43-66.8 42.62-76.88l8.93-18.14 68.53.86 68.82.86 12.67 14.41zM636.41 420.79c24.19 41.18 43.48 76.88 42.9 79.47-.57 2.3-20.73 38.29-44.63 79.76l-44.06 75.44-89.55-.58-89.84-.86-45.21-77.74c-40.6-69.4-44.92-78.32-41.46-83.5 2.02-3.17 22.17-37.72 44.92-77.17l41.46-71.12 90.99.58 90.7.86 43.78 74.86zM70.88 458.22c28.22 46.65 28.8 35.13-4.6 91.86-19 32.54-20.44 33.98-23.32 27.36-5.47-12.96-3.17-166.14 2.59-160.38.57.28 11.8 18.99 25.33 41.16zm892.92 34.56c.29 50.39-2.59 90.7-6.33 90.7-1.15-.29-12.96-18.43-25.92-40.89l-24.19-40.89 6.62-11.52c3.46-6.62 14.97-26.2 25.34-43.48l18.72-31.67 2.59 12.96c1.44 7.2 2.88 36.28 3.17 64.79zm-621.39 96.46 44.63 76.02-9.5 17.57c-4.89 9.5-24.19 44.34-42.9 77.74l-33.4 60.47-68.82-.86-68.82-.88-13.82-14.97c-34.84-38.01-72.56-103.37-89.84-155.2l-7.2-22.17 24.76-42.33c13.82-23.61 29.37-49.52 34.84-57.88l9.79-15.26 87.82.58 88.11.86 44.35 76.31zm552.28-56.73c6.05 9.79 20.73 34.55 32.82 55l21.6 37.15-5.18 16.12c-19 61.04-61.62 135.05-98.48 170.75l-10.94 10.65-65.94.58-65.94.29-12.09-21.02c-6.62-11.8-26.49-46.93-44.05-78.03l-32.25-56.44 22.75-38.59c12.38-21.02 32.54-55.57 44.63-76.59l22.46-38.01h179.39l11.22 18.14zM606.17 713.05c44.34 77.74 68.53 122.37 68.53 126.7 0 2.3-13.24 27.64-29.37 56.15-20.44 35.42-31.96 52.98-36.86 55.29-4.03 1.73-22.17 5.47-40.31 8.35-60.47 8.64-167.58 1.44-177.95-12.67-2.3-2.59-17.56-28.51-34.27-57.59-28.51-49.24-30.23-53.27-27.07-60.47 2.02-4.32 21.31-39.16 42.9-77.17l39.16-69.68 88.97.57 88.98.29 17.29 30.23zM321.39 882.08c10.65 18.72 22.46 39.45 26.49 46.07 4.32 6.91 6.91 12.38 6.05 12.38-.86 0-9.79-3.17-19.58-6.91-41.46-15.55-94.44-46.07-127.27-73.42l-13.82-11.8H302.1l19.29 33.68zm482.89-31.1c0 3.74-38.3 31.67-66.51 48.66C713 914.62 658 939.38 655.7 936.79c-.87-.86 9.21-20.16 22.46-43.19l23.9-42.04 48.95-.86c27.07-.58 49.81-1.44 51.25-1.73 1.15-.3 2.02.57 2.02 2.01z" fill="currentColor"/></svg><svg viewBox="0 0 362 67" id="logo"><path d="M9.233 2.545V52H.49V2.545h8.742ZM18.322 52V14.91h8.741V52h-8.741Zm4.395-42.355c-1.385 0-2.576-.459-3.574-1.377-.998-.933-1.497-2.052-1.497-3.356 0-1.32.499-2.439 1.497-3.357.998-.933 2.19-1.4 3.574-1.4 1.4 0 2.592.467 3.574 1.4.998.918 1.497 2.037 1.497 3.357 0 1.304-.5 2.423-1.497 3.356-.982.918-2.174 1.377-3.574 1.377Zm29.566 57.037c-3.14 0-5.836-.427-8.09-1.28-2.253-.837-4.064-1.964-5.433-3.38-1.368-1.417-2.318-2.987-2.85-4.71l7.873-1.907c.354.724.87 1.44 1.545 2.149.677.724 1.586 1.32 2.73 1.787 1.158.483 2.615.724 4.37.724 2.48 0 4.532-.603 6.158-1.81 1.626-1.192 2.439-3.156 2.439-5.893v-7.027h-.435c-.45.902-1.11 1.827-1.98 2.777-.853.95-1.988 1.747-3.405 2.39-1.4.645-3.163.967-5.288.967-2.85 0-5.434-.668-7.752-2.005-2.302-1.352-4.137-3.364-5.505-6.036-1.353-2.689-2.029-6.053-2.029-10.094 0-4.073.676-7.51 2.029-10.311 1.368-2.817 3.211-4.95 5.53-6.4 2.318-1.464 4.901-2.197 7.75-2.197 2.174 0 3.961.37 5.362 1.11 1.416.725 2.543 1.603 3.38 2.633.837 1.014 1.473 1.972 1.908 2.874h.483v-6.134h8.62v37.695c0 3.171-.756 5.795-2.27 7.872-1.513 2.077-3.581 3.63-6.205 4.66-2.624 1.03-5.603 1.546-8.935 1.546Zm.072-22.071c1.852 0 3.43-.451 4.734-1.352 1.303-.902 2.294-2.198 2.97-3.888.676-1.69 1.014-3.719 1.014-6.086 0-2.334-.338-4.378-1.014-6.133-.66-1.755-1.642-3.115-2.946-4.081-1.288-.982-2.874-1.473-4.758-1.473-1.947 0-3.573.507-4.877 1.521-1.304 1.015-2.286 2.407-2.946 4.178-.66 1.755-.99 3.75-.99 5.988 0 2.27.33 4.259.99 5.965.676 1.69 1.666 3.01 2.97 3.96 1.32.934 2.938 1.4 4.853 1.4Zm37.071 8.138c-2.35 0-4.468-.419-6.351-1.256-1.868-.853-3.349-2.109-4.443-3.767-1.079-1.658-1.618-3.703-1.618-6.134 0-2.093.386-3.823 1.159-5.191a8.97 8.97 0 0 1 3.163-3.285c1.336-.82 2.842-1.44 4.516-1.859a36.723 36.723 0 0 1 5.24-.942c2.173-.225 3.936-.426 5.288-.603 1.353-.194 2.335-.483 2.946-.87.628-.402.942-1.022.942-1.86v-.144c0-1.82-.54-3.228-1.618-4.226-1.079-.998-2.632-1.497-4.66-1.497-2.141 0-3.84.467-5.096 1.4-1.24.934-2.076 2.037-2.51 3.309l-8.163-1.16c.644-2.253 1.707-4.137 3.188-5.65 1.48-1.53 3.292-2.672 5.433-3.429 2.141-.773 4.508-1.159 7.1-1.159 1.786 0 3.565.21 5.336.628a15.014 15.014 0 0 1 4.854 2.077c1.465.95 2.64 2.245 3.525 3.887.902 1.642 1.353 3.695 1.353 6.158V52h-8.404v-5.095h-.29c-.53 1.03-1.28 1.996-2.245 2.898-.95.885-2.15 1.601-3.598 2.149-1.433.53-3.115.797-5.047.797Zm2.27-6.424c1.754 0 3.276-.346 4.564-1.038 1.287-.708 2.277-1.642 2.97-2.801a7.135 7.135 0 0 0 1.062-3.791v-4.371c-.273.225-.74.434-1.4.628-.644.193-1.369.362-2.174.507a67.65 67.65 0 0 1-2.39.386c-.79.113-1.473.21-2.053.29-1.304.177-2.471.467-3.501.87-1.03.402-1.844.965-2.44 1.69-.595.708-.893 1.626-.893 2.752 0 1.61.588 2.826 1.763 3.647 1.175.82 2.672 1.231 4.492 1.231Zm36.877 6.424c-2.351 0-4.468-.419-6.351-1.256-1.868-.853-3.349-2.109-4.443-3.767-1.079-1.658-1.618-3.703-1.618-6.134 0-2.093.386-3.823 1.159-5.191a8.965 8.965 0 0 1 3.163-3.285c1.336-.82 2.841-1.44 4.516-1.859a36.711 36.711 0 0 1 5.24-.942 206.41 206.41 0 0 0 5.288-.603c1.352-.194 2.334-.483 2.946-.87.628-.402.942-1.022.942-1.86v-.144c0-1.82-.539-3.228-1.618-4.226-1.079-.998-2.632-1.497-4.66-1.497-2.142 0-3.84.467-5.096 1.4-1.239.934-2.076 2.037-2.511 3.309l-8.162-1.16c.644-2.253 1.706-4.137 3.188-5.65 1.481-1.53 3.292-2.672 5.433-3.429 2.141-.773 4.507-1.159 7.099-1.159 1.787 0 3.566.21 5.337.628a15.014 15.014 0 0 1 4.854 2.077c1.465.95 2.64 2.245 3.525 3.887.902 1.642 1.352 3.695 1.352 6.158V52h-8.403v-5.095h-.29c-.531 1.03-1.28 1.996-2.246 2.898-.949.885-2.149 1.601-3.598 2.149-1.432.53-3.115.797-5.046.797Zm2.269-6.424c1.755 0 3.277-.346 4.564-1.038 1.288-.708 2.278-1.642 2.971-2.801a7.138 7.138 0 0 0 1.062-3.791v-4.371c-.274.225-.74.434-1.401.628a19.76 19.76 0 0 1-2.173.507 67.65 67.65 0 0 1-2.39.386c-.789.113-1.473.21-2.053.29-1.304.177-2.471.467-3.501.87-1.031.402-1.844.965-2.439 1.69-.596.708-.894 1.626-.894 2.752 0 1.61.588 2.826 1.763 3.647 1.175.82 2.672 1.231 4.491 1.231Zm31.589 6.206c-1.465 0-2.721-.515-3.767-1.545-1.046-1.03-1.561-2.286-1.545-3.767-.016-1.45.499-2.689 1.545-3.719 1.046-1.03 2.302-1.545 3.767-1.545 1.417 0 2.648.515 3.695 1.545 1.062 1.03 1.602 2.27 1.618 3.719a5.15 5.15 0 0 1-.773 2.68 5.55 5.55 0 0 1-1.932 1.932c-.789.467-1.658.7-2.608.7ZM176.869 52V14.91h8.741V52h-8.741Zm4.395-42.355c-1.385 0-2.576-.459-3.574-1.377-.998-.933-1.497-2.052-1.497-3.356 0-1.32.499-2.439 1.497-3.357.998-.933 2.189-1.4 3.574-1.4 1.4 0 2.592.467 3.574 1.4.998.918 1.497 2.037 1.497 3.357 0 1.304-.499 2.423-1.497 3.356-.982.918-2.174 1.377-3.574 1.377Zm22.177 20.622V52h-8.742V14.91h8.355v6.302h.435c.853-2.077 2.214-3.727 4.081-4.95 1.884-1.224 4.21-1.836 6.979-1.836 2.559 0 4.789.547 6.689 1.642 1.915 1.095 3.396 2.68 4.443 4.757 1.062 2.077 1.586 4.596 1.569 7.559V52h-8.741V29.736c0-2.48-.644-4.42-1.932-5.82-1.272-1.4-3.034-2.1-5.288-2.1-1.53 0-2.89.337-4.081 1.014-1.175.66-2.101 1.617-2.777 2.873-.66 1.256-.99 2.777-.99 4.564Zm51.317-15.357v6.76h-21.322v-6.76h21.322ZM238.7 6.022h8.741v34.82c0 1.176.177 2.077.532 2.705.37.612.853 1.03 1.448 1.256a5.562 5.562 0 0 0 1.981.338 8.6 8.6 0 0 0 1.497-.12c.467-.081.821-.154 1.062-.218l1.473 6.834c-.467.16-1.135.338-2.004.531-.853.193-1.9.306-3.139.338-2.19.065-4.162-.265-5.916-.99-1.755-.74-3.148-1.884-4.178-3.429-1.014-1.545-1.513-3.477-1.497-5.795V6.023Zm39.491 46.702c-3.719 0-6.931-.772-9.635-2.318-2.689-1.561-4.757-3.767-6.206-6.616-1.449-2.866-2.173-6.238-2.173-10.118 0-3.815.724-7.164 2.173-10.046 1.465-2.897 3.509-5.151 6.133-6.761 2.624-1.626 5.707-2.439 9.249-2.439 2.286 0 4.443.37 6.472 1.11a14.633 14.633 0 0 1 5.409 3.382c1.577 1.529 2.817 3.477 3.718 5.843.902 2.35 1.353 5.152 1.353 8.404v2.68h-30.402v-5.892h22.022c-.016-1.674-.378-3.163-1.086-4.467a7.911 7.911 0 0 0-2.97-3.115c-1.256-.757-2.721-1.135-4.395-1.135-1.787 0-3.357.434-4.709 1.304a8.981 8.981 0 0 0-3.163 3.38c-.741 1.385-1.119 2.906-1.135 4.564v5.144c0 2.157.394 4.008 1.183 5.554.789 1.53 1.891 2.704 3.308 3.525 1.417.805 3.075 1.208 4.975 1.208 1.271 0 2.422-.177 3.453-.532a7.668 7.668 0 0 0 2.68-1.617c.757-.709 1.328-1.586 1.715-2.633l8.162.918c-.516 2.157-1.498 4.04-2.947 5.65-1.432 1.594-3.268 2.834-5.505 3.72-2.238.869-4.798 1.303-7.679 1.303ZM302.179 52V14.91h8.476v6.18h.386c.676-2.14 1.835-3.79 3.477-4.95 1.659-1.175 3.55-1.762 5.675-1.762.483 0 1.022.024 1.618.072a10.87 10.87 0 0 1 1.521.17v8.04c-.37-.128-.957-.241-1.762-.338a16.226 16.226 0 0 0-2.294-.169c-1.594 0-3.027.347-4.299 1.039a7.607 7.607 0 0 0-2.97 2.825c-.724 1.207-1.087 2.6-1.087 4.178V52h-8.741Zm35.802-21.733V52h-8.741V14.91h8.355v6.302h.435c.853-2.077 2.213-3.727 4.081-4.95 1.883-1.224 4.209-1.836 6.978-1.836 2.56 0 4.79.547 6.689 1.642 1.916 1.095 3.397 2.68 4.443 4.757 1.063 2.077 1.586 4.596 1.57 7.559V52h-8.741V29.736c0-2.48-.644-4.42-1.932-5.82-1.272-1.4-3.035-2.1-5.289-2.1-1.529 0-2.889.337-4.081 1.014-1.175.66-2.1 1.617-2.777 2.873-.66 1.256-.99 2.777-.99 4.564Z" fill="currentColor"/></svg></svg>